<?xml version="1.0" encoding="utf-8"?>
<!-- Generator: Adobe Illustrator 16.0.0, SVG Export Plug-In . SVG Version: 6.00 Build 0)  -->
<!DOCTYPE svg PUBLIC "-//W3C//DTD SVG 1.1//EN" "http://www.w3.org/Graphics/SVG/1.1/DTD/svg11.dtd">
<svg version="1.1" id="Layer_1" xmlns="http://www.w3.org/2000/svg" xmlns:xlink="http://www.w3.org/1999/xlink" x="0px" y="0px"
	 width="850.393px" height="789.628px" viewBox="0 0 850.393 789.628" enable-background="new 0 0 850.393 789.628"
	 xml:space="preserve">
<g>
	<path fill="#64585a" d="M425.307,0C132.715,0,0,126.967,0,397.617c0,264.974,132.715,392.011,425.307,392.011
		c281.407,0,425.086-127.037,425.086-392.011C850.393,126.967,706.713,0,425.307,0z"/>
	<path fill="#e6e1cf" d="M566.206,498.843c-3.135,2.86-33.722,27.949-140.899,27.949c-91.071,0-133.599-17.173-143.361-26.255
		c-5.317-4.943-19.11-33.068-19.11-102.92c0-73.736,14.526-103.539,20.124-108.801c9.56-8.986,51.609-25.98,142.348-25.98
		c106.775,0,136.803,24.852,139.874,27.686c10.322,9.521,22.379,43.281,22.379,107.095
		C587.559,457.949,576.055,489.854,566.206,498.843z"/>
</g>
</svg>
