<?xml version="1.0" encoding="utf-8"?>
<!-- Generator: Adobe Illustrator 17.1.0, SVG Export Plug-In . SVG Version: 6.00 Build 0)  -->
<!DOCTYPE svg PUBLIC "-//W3C//DTD SVG 1.1//EN" "http://www.w3.org/Graphics/SVG/1.1/DTD/svg11.dtd">
<svg version="1.1" id="Layer_1" xmlns="http://www.w3.org/2000/svg" xmlns:xlink="http://www.w3.org/1999/xlink" x="0px" y="0px"
	 viewBox="0 0 392 254.5" enable-background="new 0 0 392 254.5" xml:space="preserve">
<circle fill="#A7845D" cx="-627.9" cy="516.4" r="117.5"/>
<rect x="-678.8" y="-73.1" fill="#D6B9AD" width="6.7" height="5"/>
<rect x="-693" y="-73.1" fill="#D6B9AD" width="9.4" height="5"/>
<rect x="-707.1" y="-73.1" fill="#D6B9AD" width="9.4" height="5"/>
<g>
	<g>
		<path fill-rule="evenodd" clip-rule="evenodd" fill="#A7845D" d="M-511.9-223.4h-1.4h-189.4h-1.4c-8.8,0-15.9,7.1-15.9,15.9v152.8
			c0,8.8,7.1,15.9,15.9,15.9h1.4h189.4h1.4c8.8,0,15.9-7.1,15.9-15.9v-152.8C-496-216.2-503.1-223.4-511.9-223.4z"/>
		<g>
			<path fill-rule="evenodd" clip-rule="evenodd" fill="#905D41" d="M-511.9-223.4h-192.3c-8.8,0-15.9,7.1-15.9,15.9v6.2H-496v-6.2
				C-496-216.2-503.1-223.4-511.9-223.4z"/>
		</g>
		<g>
			<path fill-rule="evenodd" clip-rule="evenodd" fill="#FFFFFF" d="M-704.2-212.7h-6.3l2.4-2.4c0.4-0.4,0.4-1.1,0-1.5
				c-0.4-0.4-1.1-0.4-1.5,0l-4.2,4.2c-0.4,0.4-0.4,1.1,0,1.5l4.2,4.2c0.4,0.4,1.1,0.4,1.5,0c0.4-0.4,0.4-1.1,0-1.5l-2.4-2.4h6.3
				c0.6,0,1-0.5,1-1C-703.1-212.3-703.6-212.7-704.2-212.7z"/>
		</g>
		<g>
			<path fill-rule="evenodd" clip-rule="evenodd" fill="#FFFFFF" d="M-697.9-212.7h6.3l-2.4-2.4c-0.4-0.4-0.4-1.1,0-1.5
				c0.4-0.4,1.1-0.4,1.5,0l4.2,4.2c0.4,0.4,0.4,1.1,0,1.5l-4.2,4.2c-0.4,0.4-1.1,0.4-1.5,0c-0.4-0.4-0.4-1.1,0-1.5l2.4-2.4h-6.3
				c-0.6,0-1-0.5-1-1C-698.9-212.3-698.5-212.7-697.9-212.7z"/>
		</g>
		<g>
			<g>
				<g>
					<circle fill-rule="evenodd" clip-rule="evenodd" fill="#ECC8A1" cx="-532.2" cy="-211.9" r="4.8"/>
					<circle fill-rule="evenodd" clip-rule="evenodd" fill="#4CB2B9" cx="-532.2" cy="-211.8" r="3.3"/>
				</g>
				<g>
					<circle fill-rule="evenodd" clip-rule="evenodd" fill="#ECC8A1" cx="-520.2" cy="-211.9" r="4.8"/>
					<circle fill-rule="evenodd" clip-rule="evenodd" fill="#FFFFFF" cx="-520.2" cy="-211.8" r="3.3"/>
				</g>
				<g>
					<circle fill-rule="evenodd" clip-rule="evenodd" fill="#ECC8A1" cx="-508.2" cy="-211.9" r="4.8"/>
					<circle fill-rule="evenodd" clip-rule="evenodd" fill="#43696F" cx="-508.2" cy="-211.8" r="3.3"/>
				</g>
			</g>
		</g>
		<g>
			<path fill-rule="evenodd" clip-rule="evenodd" fill="#FAEDE5" d="M-548.5-218.3h-11.6h-105.1h-11.6c-3.6,0-6.6,3-6.6,6.6
				c0,3.6,3,6.6,6.6,6.6h11.6h105.1h11.6c3.6,0,6.6-3,6.6-6.6C-541.9-215.4-544.9-218.3-548.5-218.3z"/>
		</g>
	</g>
	<g>
		<circle fill-rule="evenodd" clip-rule="evenodd" fill="#905D41" cx="-605.5" cy="-112.9" r="67.1"/>
		<circle fill-rule="evenodd" clip-rule="evenodd" fill="#FFFFFF" cx="-605.5" cy="-123.7" r="67.1"/>
		<g>
			<g>
				<path fill-rule="evenodd" clip-rule="evenodd" fill="#ECC8A1" d="M-581.2-104.1c-1.3-0.4-2.5-3.2-2.8-5.3
					c-0.4-2.1-1.9-4.5-4-5.5c-2.1-1-3.4,0-5.3-1c-1.9-1-4.9-3-6.8-3.6c-1.9-0.6-4.5-0.2-6.4-1.1c-1.9-0.9-4.7,1.5-4.7,1.5
					s-2.3,4.2-3,5.3c-0.7,1.1-1,5.9-0.5,7.4c0.4,1.5,4.1,5.1,4.1,5.1s1.7,2.9,3,2.9c1.3,0,3.8-1.9,5.9-2.1c2.1-0.2,3.2,1.5,3.8,2.4
					c0.6,1,1,5.3,0.8,6.6c-0.2,1.3,0.2,9.8,0.7,10.6c0.6,0.8,4.7,4.7,6.2,4.7c1.5,0,3.2-2.6,4.6-3.8c1.3-1.1,3-5.9,3-7.2v-6.8
					c0-1.1,1.7-2.8,3-4.2c1.3-1.3,2.6-3.8,2.2-5.3C-577.8-104.8-579.9-103.7-581.2-104.1z"/>
			</g>
			<g>
				<g>
					<path fill-rule="evenodd" clip-rule="evenodd" fill="#ECC8A1" d="M-605.1-192.3c-38.5,0-69.7,31.2-69.7,69.7
						c0,38.5,31.2,69.7,69.7,69.7c38.5,0,69.7-31.2,69.7-69.7C-535.4-161.1-566.6-192.3-605.1-192.3z M-655.2-86.3
						c-3.4-4.7-6.2-9.8-8.3-15.3c1.6,0.4,3.3,0.5,4.6,0.8c2.3,0.6,4.6,4.2,5.5,4.6C-652.4-96-654.2-87.6-655.2-86.3z M-561.6-79.1
						C-572.8-67.9-588.3-61-605.4-61c-10.1,0-19.7-2.5-28.1-6.8c1-2,1.8-8,1.8-8s1.5-15,0.9-15.9c-0.6-1-4.4-4.5-6.8-5.7
						c-2.5-1.2-4.7,0.2-6.8-0.6c-2.1-0.7-3-4-4.5-5.1c-1.5-1.1-3.8-1.1-6.1-1.8c-2.4-0.7-3.9-3.5-4.5-4.7c-0.6-1.1-0.2-3.9,1.5-4.2
						c1.8-0.3,3.6-0.6,10.1-3.7c6.5-3.2-0.8-5.2-0.4-9.7c0.4-4.6,6.4-4.2,8.9-6.8c2.5-2.6-1.7-4.4-3.6-5.8c-1.9-1.5-4.9,0.4-6,2.4
						c-1.1,2.1-1.5,3.8-3.8,3.4c-2.3-0.4-3-0.8-4.3-3.4c-1.3-2.5,0.9-2.7,5.8-6c5-3.4,1.9-3.4,1.7-4.7c-0.2-1.3-2.3-0.7-4.7-1.7
						c0,0,0-0.1-0.1-0.1c-2.3-1-1-3.5,0.5-4.5c1.5-0.9,3.2-1.1,4.7-0.2c1.5,0.9,1.5,1.7,5.5,0.2c4-1.5,4.2-0.2,5.5,1.7
						c0.9,1.2,1.9,3,3,4.7c0.6,1,1.2,1.8,1.7,2.5c1.5,1.9,5.3,0,8.5-1.8c0,0,0.1-0.1,0.1-0.1c3.1-1.9,2-4.9,2.2-7.5
						c0.2-2.6-1.9-2.6-3-3.6c-1.1-0.9-1.4-4.3-2.7-6.3c-1.3-1.9-4-1.7-5.7-1.1c-1.7,0.6-4.5,3.1-5.1,2.8c-0.6-0.2-0.4-3-1.7-4
						c-0.8-0.6-3.8-0.7-6.4-1.1c11.1-10.2,25.8-16.6,42.1-16.6c17.1,0,32.5,6.9,43.7,18.1c2.5,2.5,4.8,5.3,6.8,8.2
						c-6.2,2-17.1,5.8-17.9,6.9c-1.1,1.5-5.1,2.3-7,1.3c-1.9-0.9-3.2-2.1-5.1-1.9c-1.9,0.2-2.7,0.4-4,1.9c-0.8,1-2.4,2.3-4,3
						c-1,0.4-1.9,0.7-2.7,0.2c-0.2-0.1-0.5-0.1-0.7-0.2c-0.7-0.1-1.3-0.1-1.8,0.1c-0.8,0.3-1.4,0.8-1.4,0.8c-1.9,2.7,0.4,6.1,1.9,6
						c1.5-0.2,3.4-3.2,4.3-3.2c0.9,0,3.1,1.7,3.4,2.4c0.3,0.7-1.5,4.8-2.7,5c-1.1,0.2-5.3,1.5-6.3,1.5c-0.9,0-5.1-1.7-6.1-0.6
						c-1,1.2-2.8,1-1.9,3.6c0.9,2.7,0,4.7-0.8,4.9c-0.8,0.2-7,1.9-0.8,2.1c6.2,0.2,7.8-1.9,9.1-2.1c1.3-0.2,3.6-1.9,5.1-1.1
						c1.5,0.8,3.9-0.4,5.1,0c1.3,0.4,4.1-3.1,5.4-1.8c1.3,1.3,1,3.9,0.6,4.9c-0.4,0.9-2.7,1.7-2.1,3c0.6,1.3,1.7,3,3.4,4.4
						c1.7,1.3,2.8,3,4,1.7c1.1-1.3,1.1-3,1.7-3.8c0.6-0.7,5.9,0.2,6.1,1.3c0.2,1.2,2.8,3.6,3.4,3.8c0.6,0.2,2.7,1.1,2.7,1.1
						s0.6,0.7,1.5,2.7c0.9,2,2.8,2,4.2,1.7c1.3-0.4,2.4-3.2,4.2-3c1.8,0.2,2.7-0.6,4.5,1.3c1.8,1.8,2.2,2.2,3.6,3.2
						C-548.3-96.6-553.9-86.8-561.6-79.1z"/>
				</g>
			</g>
		</g>
	</g>
	<g>
		<g>
			<polygon fill="#DA745F" points="-750.3,-124.9 -724.6,-150.6 -732.4,-158.4 -765.8,-124.9 -732.4,-91.5 -724.6,-99.3 			"/>
		</g>
		<g>
			<polygon fill="#DA745F" points="-466.1,-124.9 -491.8,-150.6 -484,-158.4 -450.6,-124.9 -484,-91.5 -491.8,-99.3 			"/>
		</g>
	</g>
</g>
<rect x="-662.2" y="-436.2" fill="#D6B9AD" width="9.8" height="6"/>
<g>
	<path fill="#3F5D69" d="M-520.1-378.4c1.3-6.2,2-12.6,2-19.1c0-6.6-0.7-13-2-19.2l-20.6-1.4c-1.5-5.1-3.6-9.9-6.2-14.4l14.4-14.1
		c-7-10.8-16.3-20.1-27.1-27.1l-15.5,13.6c-4.6-2.4-9.4-4.4-14.5-5.8l0.2-20.2c-6.2-1.3-12.6-2-19.1-2c-6.6,0-13,0.7-19.2,2.1
		l-1.4,20.6c-5.1,1.5-9.9,3.6-14.4,6.2l-14.1-14.4c-10.8,7-20.1,16.3-27.1,27.1l13.6,15.5c-2.4,4.6-4.4,9.4-5.8,14.5l-20.1-0.2
		c-1.3,6.2-2,12.6-2,19.1c0,6.6,0.7,13,2,19.2l20.6,1.4c1.5,5.1,3.6,9.9,6.2,14.4l-14.4,14.1c7,10.8,16.3,20.1,27.1,27.1l15.5-13.6
		c4.6,2.4,9.4,4.4,14.5,5.8l-0.2,20.1c6.2,1.3,12.6,2,19.1,2c6.6,0,13-0.7,19.2-2l1.4-20.6c5.1-1.5,9.9-3.6,14.4-6.2l14.1,14.4
		c10.8-7,20.1-16.3,27.1-27.1l-13.6-15.5c2.4-4.6,4.4-9.4,5.8-14.5L-520.1-378.4z M-608.7-369.8c-15.3,0-27.7-12.4-27.7-27.7
		c0-15.3,12.4-27.7,27.7-27.7c15.3,0,27.7,12.4,27.7,27.7C-581-382.2-593.4-369.8-608.7-369.8z"/>
	<path fill="#70A9BF" d="M-564-393.4c0-24.7-20-44.7-44.7-44.7c-24.7,0-44.7,20-44.7,44.7c0,24.7,20,44.7,44.7,44.7
		C-584-348.7-564-368.7-564-393.4z M-636.4-397.5c0-15.3,12.4-27.7,27.7-27.7c15.3,0,27.7,12.4,27.7,27.7
		c0,15.3-12.4,27.7-27.7,27.7C-624-369.8-636.4-382.2-636.4-397.5z"/>
	<path fill="#4A7689" d="M-608.7-442.2c-24.7,0-44.7,20-44.7,44.7c0,24.7,20,44.7,44.7,44.7c24.7,0,44.7-20,44.7-44.7
		C-564-422.2-584-442.2-608.7-442.2z M-608.7-370.9c-14.7,0-26.6-11.9-26.6-26.6c0-14.7,11.9-26.6,26.6-26.6
		c14.7,0,26.6,11.9,26.6,26.6C-582.1-382.8-594-370.9-608.7-370.9z"/>
	<g>
		<path fill="#70A9BF" d="M-607.8-436.3c16.4,0,31,8.1,39.9,20.4c-7-15.5-22.6-26.4-40.8-26.4c-20.8,0-38.3,14.2-43.3,33.5
			C-644-425.1-627.2-436.3-607.8-436.3z"/>
	</g>
	<g>
		<path fill="#4A7689" d="M-608.1-455.8c25.2,0,47.5,12.4,61.2,31.4c-10.7-23.8-34.7-40.4-62.5-40.4c-31.9,0-58.8,21.8-66.4,51.4
			C-663.6-438.6-637.9-455.8-608.1-455.8z"/>
	</g>
	<g>
		<path fill-rule="evenodd" clip-rule="evenodd" fill="#A7845D" d="M-514.7-493.5c0.7-3,0.9-6.1,0.5-9.1l-7.7-1.2
			c-0.3-1-0.6-2.1-1.1-3l5.2-5.8c-0.8-1.3-1.7-2.5-2.7-3.7c-1-1.2-2.2-2.2-3.3-3.1l-6.3,4.6c-0.9-0.6-1.9-1-2.9-1.4l-0.4-7.8
			c-3-0.7-6.1-0.9-9.1-0.5l-1.2,7.7c-1,0.3-2,0.6-3,1.1l-5.8-5.2c-1.3,0.8-2.5,1.7-3.7,2.7c-1.2,1-2.2,2.1-3.1,3.3l4.6,6.3
			c-0.6,0.9-1,1.9-1.4,2.9l-7.8,0.4c-0.7,3-0.9,6.1-0.5,9.1l7.7,1.2c0.3,1,0.6,2,1.1,3l-5.2,5.8c0.8,1.3,1.7,2.5,2.7,3.7
			c1,1.2,2.1,2.2,3.3,3.1l6.3-4.6c0.9,0.6,1.9,1,2.9,1.4l0.4,7.8c3,0.7,6.1,0.9,9.1,0.5l1.2-7.7c1-0.3,2.1-0.6,3-1.1l5.8,5.2
			c1.3-0.8,2.5-1.7,3.7-2.7c1.2-1,2.2-2.2,3.1-3.3l-4.6-6.3c0.6-0.9,1-1.9,1.4-2.9L-514.7-493.5z M-532.5-491.7
			c-4.2,3.8-10.8,3.4-14.6-0.8c-3.8-4.2-3.4-10.8,0.8-14.6c4.2-3.8,10.8-3.4,14.6,0.8C-527.9-502-528.3-495.5-532.5-491.7z"/>
	</g>
	<g>
		<path fill-rule="evenodd" clip-rule="evenodd" fill="#DA745F" d="M-462.5-427.6l14,3.5c2.9-4.9,5-10.3,6-16l-12.8-6.4
			c0.1-2.1,0.1-4.2-0.2-6.3l12.4-7.4c-0.7-2.7-1.6-5.4-2.8-8.1c-1.2-2.6-2.6-5.1-4.2-7.4l-13.6,4.5c-1.4-1.6-3-3-4.6-4.3l3.5-14
			c-4.9-2.9-10.3-5-16-6l-6.4,12.8c-2.1-0.1-4.2-0.1-6.3,0.2l-7.4-12.4c-2.7,0.7-5.4,1.6-8.1,2.8c-2.6,1.2-5.1,2.6-7.4,4.2l4.5,13.6
			c-1.6,1.4-3,3-4.3,4.6l-14-3.5c-2.9,4.9-5,10.3-6,16l12.8,6.4c-0.1,2.1-0.1,4.2,0.2,6.3l-12.4,7.4c0.7,2.7,1.6,5.4,2.8,8.1
			c1.2,2.6,2.6,5.1,4.2,7.4l13.6-4.5c1.4,1.6,3,3,4.6,4.3l-3.5,14c4.9,2.9,10.3,5,16,6l6.4-12.8c2.1,0.1,4.2,0.1,6.3-0.2l7.4,12.4
			c2.7-0.7,5.4-1.6,8.1-2.8c2.6-1.2,5.1-2.6,7.4-4.2l-4.5-13.6C-465.2-424.4-463.8-425.9-462.5-427.6z M-481.5-430.9
			c-9.7,4.4-21.2,0.1-25.7-9.6c-4.4-9.7-0.1-21.2,9.6-25.7c9.7-4.4,21.2-0.1,25.7,9.6C-467.4-446.9-471.7-435.4-481.5-430.9z"/>
	</g>
</g>
<g>
	<g>
		<path fill="#A7845D" d="M-556.9,84.2c0-0.1,0-0.1,0-0.2c0-9-39.2-16.3-87.7-16.3c-48.4,0-87.7,7.3-87.7,16.3c0,0.1,0,0.1,0,0.2h0
			V205c0,9.3,2.1,19,10,23.7c12.8,7.6,77.6,42.8,77.6,42.8c0.2-0.1,64.8-35.2,77.6-42.8c8-4.7,10-14.3,10-23.7L-556.9,84.2
			L-556.9,84.2z"/>
		<path fill="#ECC8A1" d="M-571.5,94.9c0-0.1,0-0.1,0-0.2c0-7.5-32.7-13.6-73.1-13.6c-40.3,0-73.1,6.1-73.1,13.6c0,0.1,0,0.1,0,0.2
			h0v100.6v3.7c0,7.8,1.7,15.8,8.4,19.7c10.7,6.3,64.7,35.6,64.7,35.6c0.1-0.1,54-29.4,64.7-35.6c6.7-3.9,8.4-11.9,8.4-19.7v-3.7
			L-571.5,94.9L-571.5,94.9z"/>
		<path fill="#DA745F" d="M-580.1,103.5c0-0.1,0-0.1,0-0.2c0-6.6-28.9-12-64.4-12c-35.6,0-64.4,5.4-64.4,12c0,0.1,0,0.1,0,0.2h0
			v88.7v3.2c0,6.9,1.5,13.9,7.4,17.4c9.4,5.6,57.1,31.4,57.1,31.4c0.1-0.1,47.6-25.9,57.1-31.4c5.9-3.5,7.4-10.5,7.4-17.4v-3.2
			L-580.1,103.5L-580.1,103.5z"/>
	</g>
	<path fill-rule="evenodd" clip-rule="evenodd" fill="#FFFFFF" d="M-652.5,196.8c-3.2-0.1-6.4-1.3-8.9-3.6l-26.6-24.5
		c-5.5-5.1-5.8-13.6-0.7-19.1c5.1-5.4,13.6-5.8,19.1-0.7l16.7,15.5l32.7-34.5c5.1-5.5,13.7-5.7,19.1-0.6c5.4,5.2,5.6,13.7,0.5,19.1
		l-41.8,44.2C-645.2,195.4-648.8,196.9-652.5,196.8L-652.5,196.8z"/>
</g>
<g>
	<path fill="#4A7689" d="M-638.2,381.5c11.6-7,25.6-9.5,41.9-7.7c14,1.6,26.3,5.9,36.5,10c6.5,2.6,13.1,6.3,19.4,11.1
		c6.1,4.6,12.1,10.2,17.7,16.7c11,12.5,20.8,28.3,28.4,45.5c7.7,17.5,13,36.4,15.3,54.6c2.5,19.8,1.7,38.4-2.4,55.3
		c-1.8,7.2-5,13.1-9.5,17.1c-2.3,2-4.9,3.5-7.6,4.3l0.6-5.5c1.3-0.6,2.5-1.5,3.7-2.5c3.7-3.3,6.5-8.3,8-14.5
		c7.8-31.9,3.1-70.8-12.7-106.8c-15.2-34.7-38.7-61.2-62.9-70.7c-6.5-2.6-20-7.9-35.3-9.7c-15.2-1.7-28.2,0.7-38.8,7
		c-10.9,6.5-10.2,18.1-8.8,24.5c1.6,7.4,5.7,15.1,11.2,21c1.7,1.8,3.4,3.4,5.2,4.8l-4.1-0.5c-1.1-0.1-2.2,0.1-3.2,0.6
		c-0.5-0.5-1.1-1.1-1.6-1.6c-6.1-6.6-10.6-15.1-12.4-23.3C-652,398.3-648,387.4-638.2,381.5z"/>
	
		<rect x="-690.7" y="460.9" transform="matrix(-0.9937 -0.1123 0.1123 -0.9937 -1307.8743 979.6269)" fill="#3F5D69" width="128.8" height="131.5"/>
	
		<rect x="-688" y="420.7" transform="matrix(-0.9937 -0.1123 0.1123 -0.9937 -1299.8065 932.2775)" fill="#FFFFFF" width="128.8" height="164"/>
	
		<rect x="-681.1" y="421.1" transform="matrix(-0.9937 -0.1123 0.1123 -0.9937 -1279.151 811.0323)" fill="#3F5D69" width="128.8" height="40.8"/>
	<g>
		<circle fill="#905D41" cx="-623.3" cy="499.5" r="31.7"/>
		<circle fill="#DA745F" cx="-623.3" cy="499.5" r="28.5"/>
		<path fill="#FFFFFF" d="M-646.4,510.7c1.9-2.1,7.5-0.3,12.1-0.9c0.3-0.2,1.1-0.4,2-1c1-0.6,1.6-1.2,1.6-1.2l0,0
			c0.2-0.1,0.5-0.2,1-0.2c0.6-1.1,0.9-2.5,1-3.7c-1.2-2.1-1.9-4.8-1.6-7.7c-0.4-0.4-0.7-1.3-0.8-2.3c-0.1-1.4-0.5-2.7,0.8-2.8
			c0-0.1,0-0.1,0-0.2c-0.3-1.4-0.9-2.6-0.9-4.1c-0.1-1.8,0.5-4.1,2.9-5.7c1.2-0.8,2.7-1.2,4.3-1.1c1.3-1.2,2.7-1.4,4.6-1.2
			c0.6,0.1,1.3,0.2,2.1,0.4c2.2,0.5,4.3,2.7,5.4,4.4c0.8,1.2,0.8,2.8,0.4,4.5c-0.3,1.6-1,3.2-1.5,4.7c0,0.1-0.1,0.2-0.1,0.4
			c0,0,0.1,0,0.1,0c1.4,0.4,0.6,1.5,0.2,2.9c-0.1,0.3-0.2,0.5-0.3,0.7c-0.3,0.6-0.7,1.1-1.1,1.3c-0.2,1.1-0.5,2.2-0.9,3.2
			c-0.7,1.6-1.6,3-2.6,4c-0.1,1-0.5,2.4-0.3,3.4c0.2,0.1,0.4,0.2,0.5,0.3c0,0,0,0,0,0s0.5,0.7,1.3,1.6c1,1,1.9,1.3,1.9,1.5
			c0,0,0,0,0,0.1c3.7,1.8,9.6,2.5,10.5,3.7c0.3,0.4,0.6,1.8,0.9,3.8c-5.9,5.9-14.4,9.1-23.3,8.1c-9.4-1.1-17.1-6.5-21.5-14.1
			C-647.4,512.3-646.9,511.2-646.4,510.7z M-630.4,508.1c0,0,0.1,0.1,0.1,0.1c0,0,0,0,0.1-0.1C-630.3,508.1-630.3,508.1-630.4,508.1
			z"/>
	</g>
	<g>
		
			<rect x="-677.2" y="537.4" transform="matrix(-0.9937 -0.1123 0.1123 -0.9937 -1312.4846 1006.6691)" fill="#E2D7B4" width="98.5" height="5.8"/>
		
			<rect x="-678.7" y="551.4" transform="matrix(-0.9937 -0.1123 0.1123 -0.9937 -1317.2151 1034.4724)" fill="#E2D7B4" width="98.5" height="5.8"/>
		
			<rect x="-622.7" y="568.7" transform="matrix(-0.9937 -0.1123 0.1123 -0.9937 -1265.0797 1071.9456)" fill="#E2D7B4" width="40.7" height="5.8"/>
	</g>
	<path fill="#70A9BF" d="M-637.8,440.1c-0.3,2.9,1.7,5.4,4.6,5.8l31.5,3.6c2.9,0.3,5.4-1.7,5.8-4.6l0,0c0.3-2.9-1.7-5.4-4.6-5.8
		l-31.5-3.6C-634.9,435.2-637.5,437.3-637.8,440.1L-637.8,440.1z"/>
	<path fill="#4A7689" d="M-599.6,438.2c6.1-3,13.1-6.4,22.3-5.3c3.8,0.4,7.7,1.6,11.8,3.5c7.7,3.7,14.4,10.2,19.9,19.4
		c4.6,7.7,8.5,17.6,11.5,29.4c5.5,21.5,7.5,45.9,9,63.8l0.2,2.2c1.6,19.9,9.4,29.5,16.7,32.3c1.1,0.4,2.2,0.7,3.2,0.8
		c2.5,0.3,5-0.2,7.4-1.3l-0.6,5.5c-2.4,0.7-4.8,1-7.3,0.7c-1.1-0.1-2.2-0.4-3.3-0.7c-4.8-1.5-9.2-4.9-12.7-9.9
		c-4.6-6.6-7.5-15.9-8.4-27l-0.2-2.2c-1.4-17.7-3.4-41.9-8.8-63c-6.2-24.2-15.9-39.5-28.7-45.6c-3.6-1.7-6.9-2.7-10.2-3.1
		c-7.3-0.8-13,1.7-18.5,4.4c-0.7-1.6-2.3-2.7-4.1-2.9l-0.8-0.1C-600.8,438.7-600.2,438.4-599.6,438.2z"/>
	<path fill="#4A7689" d="M-628,436c4.4,3.4,9.1,5.5,13.7,6c0,0,0,0,0,0c1.1,0.1,2.2,0.2,3.2,0.1c3.2-0.2,6.2-1.5,9.7-3.1l0.8,0.1
		c1.9,0.2,3.4,1.4,4.1,2.9c-0.4,0.2-0.7,0.3-1.1,0.5c-4.4,2.2-8.6,4.2-13.3,4.4c-1.3,0.1-2.7,0-4-0.1c0,0,0,0,0,0
		c-7-0.8-14.2-4.6-20.4-10.7c0.9-0.5,2-0.8,3.2-0.6L-628,436z"/>
	<path fill="#4A7689" d="M-632,435.5l4.1,0.5c2.6,2,5.3,3.6,8.1,4.6l-7.6,1.7c-2.7-1.6-5.2-3.7-7.7-6.1
		C-634.2,435.7-633.2,435.4-632,435.5z"/>
</g>
<g>
	<g>
		<path fill="#A7845D" d="M-487.7,159.2c0-0.1,0-0.1,0-0.2c0-6.1-26.6-11.1-59.5-11.1c-32.8,0-59.5,5-59.5,11.1c0,0.1,0,0.1,0,0.2h0
			v81.9c0,6.3,1.4,12.9,6.8,16c8.7,5.1,52.6,29,52.6,29c0.1-0.1,43.9-23.9,52.6-29c5.4-3.2,6.8-9.7,6.8-16L-487.7,159.2
			L-487.7,159.2z"/>
		<path fill="#ECC8A1" d="M-497.6,166.4c0,0,0-0.1,0-0.1c0-5.1-22.2-9.2-49.6-9.2c-27.4,0-49.6,4.1-49.6,9.2c0,0,0,0.1,0,0.1h0v68.2
			v2.5c0,5.3,1.2,10.7,5.7,13.4c7.3,4.3,43.9,24.2,43.9,24.2c0.1-0.1,36.6-19.9,43.9-24.2c4.5-2.7,5.7-8.1,5.7-13.4v-2.5
			L-497.6,166.4L-497.6,166.4z"/>
		<path fill="#DA745F" d="M-503.4,172.2c0,0,0-0.1,0-0.1c0-4.5-19.6-8.1-43.7-8.1c-24.1,0-43.7,3.6-43.7,8.1c0,0,0,0.1,0,0.1h0v60.2
			v2.2c0,4.7,1,9.5,5,11.8c6.4,3.8,38.7,21.3,38.7,21.3c0.1-0.1,32.3-17.6,38.7-21.3c4-2.3,5-7.1,5-11.8v-2.2L-503.4,172.2
			L-503.4,172.2z"/>
	</g>
	<path fill-rule="evenodd" clip-rule="evenodd" fill="#FFFFFF" d="M-552.5,235.5c-2.2,0-4.3-0.9-6-2.4l-18-16.6
		c-3.7-3.4-3.9-9.2-0.5-13c3.4-3.7,9.2-3.9,13-0.5l11.3,10.5l22.1-23.4c3.5-3.7,9.3-3.8,13-0.4c3.7,3.5,3.8,9.3,0.4,13l-28.4,30
		C-547.5,234.6-550,235.6-552.5,235.5L-552.5,235.5z"/>
</g>
<g>
	<polygon fill="#ECC8A1" points="259.8,-508.1 104,-507.1 105.5,-291.8 214.9,-292.5 261,-339.3 	"/>
	<polygon fill="#A7845D" points="214.9,-292.5 261,-339.3 214.5,-339 	"/>
	<polygon fill="#A7845D" points="259.8,-502 104,-500.9 104.2,-472.2 260,-472.4 	"/>
	<polygon fill="#3F5D69" points="259.8,-508.1 104,-507.1 104.2,-478.4 260,-478.5 	"/>
	<g>
		<g>
			<g>
				<path fill="#CD5E45" d="M157.5-448.9c0.1,7-5.4,12.8-12.4,12.9c-7,0.1-12.8-5.4-12.9-12.4c-0.1-7,5.4-12.8,12.4-12.9
					C151.6-461.5,157.4-455.9,157.5-448.9z"/>
				<path fill="#FFFFFF" d="M144-440.2c-0.6,0-1.2-0.2-1.7-0.6l-5.2-4.5c-1.1-0.9-1.2-2.5-0.3-3.6c0.9-1.1,2.6-1.2,3.6-0.3l3.3,2.8
					l6-6.8c0.9-1.1,2.6-1.2,3.6-0.2c1.1,0.9,1.2,2.6,0.2,3.6l-7.7,8.7C145.4-440.6,144.7-440.3,144-440.2z"/>
			</g>
			<g>
				<path fill="#CD5E45" d="M158.2-412.3c0.1,7-5.4,12.8-12.4,12.9c-7,0.1-12.8-5.4-12.9-12.4c-0.1-7,5.4-12.8,12.4-12.9
					C152.3-424.8,158.1-419.3,158.2-412.3z"/>
				<path fill="#FFFFFF" d="M144.6-403.6c-0.6,0-1.2-0.2-1.7-0.6l-5.2-4.5c-1.1-0.9-1.2-2.6-0.3-3.6c0.9-1.1,2.6-1.2,3.6-0.3
					l3.3,2.8l6-6.8c0.9-1.1,2.6-1.2,3.6-0.2c1.1,0.9,1.2,2.6,0.2,3.6l-7.7,8.7C146-403.9,145.3-403.6,144.6-403.6z"/>
			</g>
			<g>
				<path fill="#CD5E45" d="M158.9-375.6c0.1,7-5.4,12.8-12.4,12.9c-7,0.1-12.8-5.4-12.9-12.4c-0.1-7,5.4-12.8,12.4-12.9
					C153-388.2,158.7-382.6,158.9-375.6z"/>
				<path fill="#FFFFFF" d="M145.3-366.9c-0.6,0-1.2-0.2-1.7-0.6l-5.2-4.5c-1.1-0.9-1.2-2.5-0.3-3.6c0.9-1.1,2.6-1.2,3.6-0.3
					l3.3,2.8l6-6.8c0.9-1.1,2.6-1.2,3.6-0.2c1.1,0.9,1.2,2.6,0.2,3.7l-7.7,8.7C146.7-367.2,146-367,145.3-366.9z"/>
			</g>
		</g>
		<g>
			<g>
				<path fill="#A7845D" d="M227.8-458.2c0,1-0.7,1.7-1.7,1.7l-60.3,1.1c-0.9,0-1.7-0.7-1.7-1.7l0,0c0-0.9,0.7-1.7,1.7-1.7l60.3-1.1
					C227-459.9,227.8-459.1,227.8-458.2L227.8-458.2z"/>
				<path fill="#A7845D" d="M227.9-449.8c0,0.9-0.7,1.7-1.7,1.7L166-447c-0.9,0-1.7-0.7-1.7-1.7l0,0c0-0.9,0.7-1.7,1.7-1.7l60.3-1.1
					C227.2-451.5,227.9-450.8,227.9-449.8L227.9-449.8z"/>
				<path fill="#A7845D" d="M200.3-440.9c0,0.9-0.7,1.7-1.7,1.7l-32.5,0.6c-0.9,0-1.7-0.7-1.7-1.7l0,0c0-0.9,0.7-1.7,1.7-1.7
					l32.5-0.6C199.5-442.6,200.3-441.9,200.3-440.9L200.3-440.9z"/>
			</g>
			<path fill="#A7845D" d="M228.5-421.5c0,0.9-0.7,1.7-1.7,1.7l-60.3,1.1c-0.9,0-1.7-0.7-1.7-1.7l0,0c0-0.9,0.7-1.7,1.7-1.7
				l60.3-1.1C227.7-423.2,228.4-422.5,228.5-421.5L228.5-421.5z"/>
			<path fill="#A7845D" d="M200.8-412.6c0,0.9-0.7,1.7-1.7,1.7l-32.5,0.6c-0.9,0-1.7-0.7-1.7-1.7l0,0c0-0.9,0.7-1.7,1.7-1.7
				l32.5-0.6C200-414.3,200.8-413.6,200.8-412.6L200.8-412.6z"/>
			<g>
				<path fill="#A7845D" d="M229.1-384.9c0,0.9-0.7,1.7-1.7,1.7l-60.3,1.1c-0.9,0-1.7-0.7-1.7-1.7l0,0c0-0.9,0.7-1.7,1.7-1.7
					l60.3-1.1C228.3-386.6,229.1-385.8,229.1-384.9L229.1-384.9z"/>
				<path fill="#A7845D" d="M229.3-376.5c0,0.9-0.7,1.7-1.7,1.7l-60.3,1.1c-0.9,0-1.7-0.7-1.7-1.7l0,0c0-0.9,0.7-1.7,1.7-1.7
					l60.3-1.1C228.5-378.2,229.3-377.4,229.3-376.5L229.3-376.5z"/>
			</g>
		</g>
	</g>
	<g>
		<path fill="#A7845D" d="M192.9-345.3c0,1-0.7,1.7-1.7,1.7l-60.3,1.1c-0.9,0-1.7-0.7-1.7-1.7l0,0c0-0.9,0.7-1.7,1.7-1.7l60.3-1.1
			C192.1-347,192.9-346.2,192.9-345.3L192.9-345.3z"/>
		<path fill="#A7845D" d="M244.3-346.9c0,0.9-0.7,1.7-1.7,1.7l-32.5,0.6c-0.9,0-1.7-0.7-1.7-1.7l0,0c0-0.9,0.7-1.7,1.7-1.7l32.5-0.6
			C243.5-348.5,244.3-347.8,244.3-346.9L244.3-346.9z"/>
	</g>
</g>
<g>
	<g>
		<circle fill-rule="evenodd" clip-rule="evenodd" fill="#70A9BF" cx="181.6" cy="-124.4" r="84.7"/>
		<circle fill-rule="evenodd" clip-rule="evenodd" fill="#FFFFFF" cx="181.6" cy="-138" r="84.7"/>
		<g>
			<g>
				<path fill-rule="evenodd" clip-rule="evenodd" fill="#3F5D69" d="M212.1-113.2c-1.7-0.5-3.1-4.1-3.6-6.7c-0.5-2.6-2.4-5.7-5-6.9
					c-2.6-1.2-4.3,0-6.7-1.2c-2.4-1.2-6.2-3.8-8.6-4.6c-2.4-0.7-5.7-0.3-8.1-1.4c-2.4-1.2-6,1.9-6,1.9s-2.9,5.3-3.8,6.7
					c-0.9,1.4-1.2,7.4-0.7,9.3c0.5,1.9,5.2,6.4,5.2,6.4s2.2,3.6,3.8,3.6c1.7,0,4.8-2.4,7.4-2.6c2.6-0.3,4,1.9,4.8,3.1
					c0.7,1.2,1.2,6.7,1,8.4c-0.2,1.7,0.2,12.4,0.9,13.3c0.7,1,6,6,7.9,6c1.9,0,4.1-3.3,5.7-4.8c1.7-1.4,3.8-7.4,3.8-9.1v-8.6
					c0-1.4,2.1-3.6,3.8-5.3c1.7-1.7,3.3-4.8,2.8-6.7C216.4-114.1,213.8-112.7,212.1-113.2z"/>
			</g>
			<g>
				<g>
					<path fill-rule="evenodd" clip-rule="evenodd" fill="#3F5D69" d="M182-224.5c-48.6,0-87.9,39.3-87.9,87.9
						c0,48.5,39.4,87.9,87.9,87.9c48.5,0,87.9-39.4,87.9-87.9C269.9-185.2,230.6-224.5,182-224.5z M135.9-80.2
						c-3.4-4.7-6.2-9.8-8.3-15.3c1.6,0.4,3.3,0.5,4.6,0.8c2.3,0.6,4.6,4.2,5.5,4.6C138.7-89.9,136.8-81.5,135.9-80.2z M236.9-81.8
						c-14.1,14.1-33.6,22.9-55.2,22.9c-12.8,0-24.8-3.1-35.5-8.6c1.3-2.6,2.2-10.1,2.2-10.1s1.9-18.9,1.2-20
						c-0.7-1.2-5.5-5.7-8.6-7.2c-3.1-1.5-6,0.2-8.6-0.8c-2.6-0.9-3.8-5-5.7-6.4c-1.9-1.4-4.8-1.4-7.7-2.2c-3-0.8-4.9-4.4-5.7-5.9
						c-0.7-1.4-0.3-4.9,1.9-5.2c2.2-0.3,4.5-0.7,12.7-4.7c8.1-4-1-6.5-0.5-12.2c0.5-5.8,8.1-5.3,11.2-8.6c3.1-3.3-2.1-5.5-4.5-7.4
						c-2.4-1.9-6.2,0.5-7.6,3.1c-1.4,2.6-1.9,4.8-4.8,4.2c-2.9-0.6-3.8-1.1-5.4-4.2c-1.7-3.2,1.1-3.4,7.4-7.6c6.3-4.3,2.4-4.3,2.2-6
						c-0.2-1.7-2.9-0.9-6-2.1c0,0,0-0.1-0.1-0.1c-2.9-1.3-1.3-4.5,0.6-5.6c1.9-1.2,4-1.4,6-0.3c1.9,1.2,1.9,2.1,6.9,0.3
						c5-1.9,5.3-0.3,6.9,2.1c1.1,1.5,2.4,3.8,3.8,5.9c0.8,1.2,1.5,2.3,2.2,3.1c1.9,2.4,6.7,0,10.7-2.3c0.1,0,0.1-0.1,0.1-0.1
						c3.9-2.4,2.5-6.2,2.8-9.5c0.2-3.3-2.4-3.3-3.8-4.5c-1.4-1.2-1.7-5.5-3.4-7.9c-1.7-2.4-5-2.1-7.2-1.4c-2.1,0.7-5.7,3.9-6.4,3.6
						c-0.7-0.2-0.5-3.8-2.1-5c-1-0.7-4.8-0.8-8.1-1.4c14-12.9,32.6-20.9,53.1-20.9c21.5,0,41,8.7,55.2,22.9c3.2,3.2,6,6.6,8.6,10.3
						c-7.8,2.5-21.6,7.3-22.6,8.7c-1.4,1.9-6.4,2.9-8.8,1.7c-2.4-1.2-4.1-2.6-6.5-2.4c-2.4,0.2-3.4,0.5-5,2.4c-1.1,1.2-3,2.9-5,3.8
						c-1.2,0.5-2.4,0.9-3.4,0.3c-0.3-0.2-0.6-0.1-0.8-0.2c-0.8-0.2-1.6-0.2-2.2,0.1c-1,0.4-1.8,1-1.8,1c-2.4,3.4,0.5,7.7,2.4,7.5
						c1.9-0.2,4.3-4.1,5.5-4.1c1.2,0,3.9,2.2,4.3,3c0.4,0.8-1.9,6.1-3.4,6.3c-1.4,0.2-6.7,1.9-7.9,1.9c-1.2,0-6.4-2.1-7.6-0.7
						c-1.2,1.5-3.6,1.2-2.4,4.6c1.2,3.3,0,6-0.9,6.2c-0.9,0.2-8.8,2.4-0.9,2.6c7.9,0.2,9.8-2.4,11.5-2.6c1.7-0.2,4.5-2.4,6.5-1.4
						c1.9,1,4.9-0.5,6.5,0c1.6,0.5,5.2-4,6.9-2.3c1.7,1.6,1.2,5,0.7,6.2c-0.5,1.2-3.4,2.1-2.7,3.8c0.8,1.7,2.2,3.8,4.3,5.5
						c2.1,1.7,3.6,3.8,5,2.1c1.4-1.7,1.4-3.8,2.1-4.8c0.7-0.9,7.4,0.3,7.7,1.7c0.2,1.5,3.6,4.6,4.3,4.8c0.7,0.2,3.4,1.4,3.4,1.4
						s0.7,0.9,1.9,3.4c1.2,2.6,3.6,2.6,5.2,2.1c1.7-0.5,3-4,5.3-3.8c2.2,0.2,3.3-0.7,5.7,1.7c2.3,2.3,2.8,2.8,4.5,4.1
						C253.7-103.8,246.6-91.5,236.9-81.8z"/>
				</g>
			</g>
		</g>
	</g>
	<g>
		<g>
			<polygon fill="#DA745F" points="40.8,-131.8 66.4,-157.5 58.7,-165.3 25.3,-131.8 58.7,-98.4 66.4,-106.2 			"/>
		</g>
		<g>
			<polygon fill="#DA745F" points="325.3,-131 299.6,-156.7 307.4,-164.5 340.8,-131 307.4,-97.6 299.6,-105.3 			"/>
		</g>
	</g>
</g>
<g>
	<g>
		<g>
			<path fill="#DA745F" d="M275.5,130.1c0,47.8-38.7,86.5-86.5,86.5c-47.8,0-86.5-38.7-86.5-86.5c0-47.8,38.7-86.5,86.5-86.5
				C236.8,43.6,275.5,82.3,275.5,130.1z"/>
			<path fill="#F6F6F6" d="M258.7,130.1c0,38.5-31.2,69.7-69.7,69.7c-38.5,0-69.7-31.2-69.7-69.7c0-38.5,31.2-69.7,69.7-69.7
				C227.5,60.4,258.7,91.6,258.7,130.1z"/>
			<path fill="#DA745F" d="M245.1,130.1c0,31-25.2,56.2-56.2,56.2c-31,0-56.2-25.2-56.2-56.2c0-31,25.2-56.2,56.2-56.2
				C220,73.9,245.1,99.1,245.1,130.1z"/>
			<path fill="#F6F6F6" d="M227.7,130.1c0,21.4-17.4,38.8-38.8,38.8s-38.8-17.4-38.8-38.8c0-21.4,17.4-38.8,38.8-38.8
				S227.7,108.7,227.7,130.1z"/>
			<path fill="#DA745F" d="M210.6,128.9c0,11.9-9.7,21.6-21.6,21.6c-12,0-21.6-9.7-21.6-21.6c0-11.9,9.7-21.6,21.6-21.6
				C200.9,107.3,210.6,117,210.6,128.9z"/>
		</g>
		<path fill="#BD9E7B" d="M191.3,130.8l82.7-16.9c0,0-5-29.1-23.6-44.7C250.3,69.1,194.2,119.9,191.3,130.8z"/>
		<path fill="#70A9BF" d="M191.3,130.8c-0.8,1-2.2,1.1-3.2,0.3l0,0c-1-0.8-1.1-2.2-0.3-3.2l14.7-17.6c0.8-1,2.2-1.1,3.2-0.3l0,0
			c0.9,0.8,1.1,2.2,0.3,3.2L191.3,130.8z"/>
		<path fill="#70A9BF" d="M211.2,103.4l-4.3-3.6l-11.5,13.8c-0.3,0.4,1.3,2.3,3.7,4.3c2.4,2,4.5,3.3,4.9,2.9l11.5-13.8L211.2,103.4z
			"/>
		<path fill="#70A9BF" d="M259,46.2c-1.8-1.6-3.8-2.3-4.4-1.6L207,99.8c-0.3,0.4,1.3,2.3,3.7,4.3c2.4,2,4.5,3.3,4.9,2.9l45.8-56.7
			C261.9,49.6,260.9,47.7,259,46.2z"/>
		<path fill="#EDB444" d="M217.1,88c0,0,2.7-25.6,3.2-46.3l7.5,0.6l9.8-12.3l5.6,3.3c0,0,8.8-10.4,9.7-11.8c0,0-3.1,24.6-5.5,31.7
			L217.1,88z"/>
		<path fill="#EDB444" d="M224.3,95.5c0,0,15-5.4,35.3-9.5l0.3-5.5l9.1-11l1-6.5c0,0,10.8-12.3,13.2-14.6c0,0-23.6,7.4-30.1,11
			L224.3,95.5z"/>
	</g>
</g>
<rect x="127.2" y="410.9" fill="#83A95B" width="226.9" height="103.8"/>
<rect x="110.9" y="410.6" fill="#C3D37E" width="226.9" height="103.8"/>
<g>
	<path fill="#83A95B" d="M121,417.4v90.2h206.7v-90.2H121z M320.3,501.3H128.4v-77.6h191.9V501.3z"/>
</g>
<path fill="#83A95B" d="M257.1,462.5c0,21.4-15.4,38.8-34.3,38.8c-19,0-34.4-17.4-34.4-38.8c0-21.4,15.4-38.8,34.4-38.8
	C241.7,423.7,257.1,441,257.1,462.5z"/>
<path fill="#C3D37E" d="M226.4,456.8c-6.5-2.8-7-4.1-7-5.6c0-2.1,1.8-3.3,4.8-3.3c4,0,6.5,1.5,7.6,2.1l2.7,1.6l1.1-3l1.8-4.7
	l0.9-2.3l-2.1-1.2c-2.4-1.4-4.9-2.3-7.8-2.7l0-4.3l0-2.9l-2.7,0l-4.4,0l-2.7,0l0,2.9l0,4.9c-6.6,1.9-10.8,7.2-10.8,13.8
	c0,8.6,6.8,12.5,13.4,15.2c5.5,2.3,6.2,4.2,6.2,5.9c0,2.9-2.9,4.2-5.7,4.2c-3,0-6.3-1-8.7-2.7l-2.9-2l-1.2,3.3l-1.7,4.8l-0.8,2.1
	l1.7,1.3c2.4,1.7,6,3,9.7,3.5l0,4.6l0,2.9l2.7,0l4.5,0l2.7,0l0-2.9l0-5.2c6.8-2,11.3-7.6,11.3-14.5
	C239.1,463.3,232.3,459.3,226.4,456.8z"/>
<polygon fill="#83A95B" points="121,417.4 121,453.8 159.9,417.4 "/>
<polygon fill="#83A95B" points="121,507.1 121,470.7 159.9,507.1 "/>
<rect x="99.1" y="382.8" fill="#83A95B" width="226.9" height="103.8"/>
<rect x="82.8" y="382.5" fill="#C3D37E" width="226.9" height="103.8"/>
<g>
	<path fill="#83A95B" d="M92.9,389.3v90.2h206.7v-90.2H92.9z M292.2,473.2H100.3v-77.6h191.9V473.2z"/>
</g>
<path fill="#83A95B" d="M229,434.3c0,21.4-15.4,38.8-34.3,38.8c-19,0-34.4-17.4-34.4-38.8c0-21.4,15.4-38.8,34.4-38.8
	C213.6,395.5,229,412.9,229,434.3z"/>
<path fill="#C3D37E" d="M198.3,428.7c-6.5-2.8-7-4.1-7-5.6c0-2.1,1.8-3.3,4.8-3.3c4,0,6.5,1.5,7.6,2.1l2.7,1.6l1.1-3l1.8-4.7
	l0.9-2.3l-2.1-1.2c-2.4-1.4-4.9-2.3-7.8-2.7l0-4.3l0-2.9l-2.7,0l-4.4,0l-2.7,0l0,2.9l0,4.9c-6.6,1.9-10.8,7.2-10.8,13.8
	c0,8.6,6.8,12.5,13.4,15.2c5.5,2.3,6.2,4.2,6.2,5.9c0,2.9-2.9,4.2-5.7,4.2c-3,0-6.3-1-8.7-2.7l-2.9-2l-1.2,3.3l-1.7,4.8l-0.8,2.1
	l1.7,1.3c2.4,1.7,6,3,9.7,3.5l0,4.6l0,2.9l2.7,0l4.5,0l2.7,0l0-2.9l0-5.2c6.8-2,11.3-7.6,11.3-14.5
	C211,435.2,204.2,431.1,198.3,428.7z"/>
<polygon fill="#83A95B" points="299.6,389.3 299.6,425.6 260.7,389.3 "/>
<polygon fill="#83A95B" points="299.6,479 299.6,442.6 260.7,479 "/>
<rect x="68.3" y="352" fill="#83A95B" width="226.9" height="103.8"/>
<rect x="52.1" y="351.7" fill="#C3D37E" width="226.9" height="103.8"/>
<g>
	<path fill="#83A95B" d="M62.2,358.5v90.2h206.7v-90.2H62.2z M261.5,442.4H69.6v-77.6h191.9V442.4z"/>
</g>
<path fill="#83A95B" d="M198.2,403.6c0,21.4-15.4,38.8-34.3,38.8c-19,0-34.4-17.4-34.4-38.8c0-21.4,15.4-38.8,34.4-38.8
	C182.9,364.8,198.2,382.2,198.2,403.6z"/>
<path fill="#C3D37E" d="M167.5,397.9c-6.5-2.8-7-4.1-7-5.6c0-2.1,1.8-3.3,4.8-3.3c4,0,6.5,1.5,7.6,2.1l2.7,1.6l1.1-3l1.8-4.7
	l0.9-2.3l-2.1-1.2c-2.4-1.4-4.9-2.3-7.8-2.7l0-4.3l0-2.9l-2.7,0l-4.4,0l-2.7,0l0,2.9l0,4.9c-6.6,1.9-10.8,7.2-10.8,13.8
	c0,8.6,6.8,12.5,13.4,15.2c5.5,2.3,6.2,4.2,6.2,5.9c0,2.9-2.9,4.2-5.7,4.2c-3,0-6.3-1-8.7-2.7l-2.9-2l-1.2,3.3l-1.7,4.8l-0.8,2.1
	l1.7,1.3c2.4,1.7,6,3,9.7,3.5l0,4.6l0,2.9l2.7,0l4.5,0l2.7,0l0-2.9l0-5.2c6.8-2,11.3-7.6,11.3-14.5
	C180.3,404.4,173.5,400.4,167.5,397.9z"/>
<polygon fill="#83A95B" points="268.9,358.5 268.9,394.9 230,358.5 "/>
<polygon fill="#83A95B" points="268.9,448.2 268.9,411.8 230,448.2 "/>
</svg>
