<?xml version="1.0" encoding="utf-8"?>
<!-- Generator: Adobe Illustrator 17.1.0, SVG Export Plug-In . SVG Version: 6.00 Build 0)  -->
<!DOCTYPE svg PUBLIC "-//W3C//DTD SVG 1.1//EN" "http://www.w3.org/Graphics/SVG/1.1/DTD/svg11.dtd">
<svg version="1.1" id="Layer_1" xmlns="http://www.w3.org/2000/svg" xmlns:xlink="http://www.w3.org/1999/xlink" x="0px" y="0px"
	 viewBox="0 0 400 294" enable-background="new 0 0 400 294" xml:space="preserve">
<circle fill="#A7845D" cx="168.1" cy="474.9" r="117.5"/>
<rect x="117.2" y="-114.6" fill="#D6B9AD" width="6.7" height="5"/>
<rect x="103" y="-114.6" fill="#D6B9AD" width="9.4" height="5"/>
<rect x="88.9" y="-114.6" fill="#D6B9AD" width="9.4" height="5"/>
<g>
	<g>
		<path fill-rule="evenodd" clip-rule="evenodd" fill="#A7845D" d="M284.1-264.9h-1.4H93.3h-1.4c-8.8,0-15.9,7.1-15.9,15.9v152.8
			c0,8.8,7.1,15.9,15.9,15.9h1.4h189.4h1.4c8.8,0,15.9-7.1,15.9-15.9v-152.8C300-257.7,292.9-264.9,284.1-264.9z"/>
		<g>
			<path fill-rule="evenodd" clip-rule="evenodd" fill="#905D41" d="M284.1-264.9H91.9c-8.8,0-15.9,7.1-15.9,15.9v6.2H300v-6.2
				C300-257.7,292.9-264.9,284.1-264.9z"/>
		</g>
		<g>
			<path fill-rule="evenodd" clip-rule="evenodd" fill="#FFFFFF" d="M91.8-254.2h-6.3l2.4-2.4c0.4-0.4,0.4-1.1,0-1.5
				c-0.4-0.4-1.1-0.4-1.5,0l-4.2,4.2c-0.4,0.4-0.4,1.1,0,1.5l4.2,4.2c0.4,0.4,1.1,0.4,1.5,0c0.4-0.4,0.4-1.1,0-1.5l-2.4-2.4h6.3
				c0.6,0,1-0.5,1-1C92.9-253.8,92.4-254.2,91.8-254.2z"/>
		</g>
		<g>
			<path fill-rule="evenodd" clip-rule="evenodd" fill="#FFFFFF" d="M98.1-254.2h6.3l-2.4-2.4c-0.4-0.4-0.4-1.1,0-1.5
				c0.4-0.4,1.1-0.4,1.5,0l4.2,4.2c0.4,0.4,0.4,1.1,0,1.5l-4.2,4.2c-0.4,0.4-1.1,0.4-1.5,0c-0.4-0.4-0.4-1.1,0-1.5l2.4-2.4h-6.3
				c-0.6,0-1-0.5-1-1C97.1-253.8,97.5-254.2,98.1-254.2z"/>
		</g>
		<g>
			<g>
				<g>
					<circle fill-rule="evenodd" clip-rule="evenodd" fill="#ECC8A1" cx="263.8" cy="-253.4" r="4.8"/>
					<circle fill-rule="evenodd" clip-rule="evenodd" fill="#4CB2B9" cx="263.8" cy="-253.3" r="3.3"/>
				</g>
				<g>
					<circle fill-rule="evenodd" clip-rule="evenodd" fill="#ECC8A1" cx="275.8" cy="-253.4" r="4.8"/>
					<circle fill-rule="evenodd" clip-rule="evenodd" fill="#FFFFFF" cx="275.8" cy="-253.3" r="3.3"/>
				</g>
				<g>
					<circle fill-rule="evenodd" clip-rule="evenodd" fill="#ECC8A1" cx="287.8" cy="-253.4" r="4.8"/>
					<circle fill-rule="evenodd" clip-rule="evenodd" fill="#43696F" cx="287.8" cy="-253.3" r="3.3"/>
				</g>
			</g>
		</g>
		<g>
			<path fill-rule="evenodd" clip-rule="evenodd" fill="#FAEDE5" d="M247.5-259.8h-11.6H130.7h-11.6c-3.6,0-6.6,3-6.6,6.6
				c0,3.6,3,6.6,6.6,6.6h11.6h105.1h11.6c3.6,0,6.6-3,6.6-6.6C254.1-256.9,251.1-259.8,247.5-259.8z"/>
		</g>
	</g>
	<g>
		<circle fill-rule="evenodd" clip-rule="evenodd" fill="#905D41" cx="190.5" cy="-154.4" r="67.1"/>
		<circle fill-rule="evenodd" clip-rule="evenodd" fill="#FFFFFF" cx="190.5" cy="-165.2" r="67.1"/>
		<g>
			<g>
				<path fill-rule="evenodd" clip-rule="evenodd" fill="#ECC8A1" d="M214.8-145.6c-1.3-0.4-2.5-3.2-2.8-5.3c-0.4-2.1-1.9-4.5-4-5.5
					c-2.1-1-3.4,0-5.3-1c-1.9-1-4.9-3-6.8-3.6c-1.9-0.6-4.5-0.2-6.4-1.1c-1.9-0.9-4.7,1.5-4.7,1.5s-2.3,4.2-3,5.3
					c-0.7,1.1-1,5.9-0.5,7.4c0.4,1.5,4.1,5.1,4.1,5.1s1.7,2.9,3,2.9c1.3,0,3.8-1.9,5.9-2.1c2.1-0.2,3.2,1.5,3.8,2.4
					c0.6,1,1,5.3,0.8,6.6c-0.2,1.3,0.2,9.8,0.7,10.6c0.6,0.8,4.7,4.7,6.2,4.7c1.5,0,3.2-2.6,4.6-3.8c1.3-1.1,3-5.9,3-7.2v-6.8
					c0-1.1,1.7-2.8,3-4.2c1.3-1.3,2.6-3.8,2.2-5.3C218.2-146.3,216.1-145.2,214.8-145.6z"/>
			</g>
			<g>
				<g>
					<path fill-rule="evenodd" clip-rule="evenodd" fill="#ECC8A1" d="M190.9-233.8c-38.5,0-69.7,31.2-69.7,69.7
						c0,38.5,31.2,69.7,69.7,69.7c38.5,0,69.7-31.2,69.7-69.7C260.6-202.6,229.4-233.8,190.9-233.8z M140.8-127.8
						c-3.4-4.7-6.2-9.8-8.3-15.3c1.6,0.4,3.3,0.5,4.6,0.8c2.3,0.6,4.6,4.2,5.5,4.6C143.6-137.5,141.8-129.1,140.8-127.8z
						 M234.4-120.6c-11.2,11.2-26.7,18.1-43.7,18.1c-10.1,0-19.7-2.5-28.1-6.8c1-2,1.8-8,1.8-8s1.5-15,0.9-15.9
						c-0.6-1-4.4-4.5-6.8-5.7c-2.5-1.2-4.7,0.2-6.8-0.6c-2.1-0.7-3-4-4.5-5.1c-1.5-1.1-3.8-1.1-6.1-1.8c-2.4-0.7-3.9-3.5-4.5-4.7
						c-0.6-1.1-0.2-3.9,1.5-4.2c1.8-0.3,3.6-0.6,10.1-3.7c6.5-3.2-0.8-5.2-0.4-9.7c0.4-4.6,6.4-4.2,8.9-6.8c2.5-2.6-1.7-4.4-3.6-5.8
						c-1.9-1.5-4.9,0.4-6,2.4c-1.1,2.1-1.5,3.8-3.8,3.4c-2.3-0.4-3-0.8-4.3-3.4c-1.3-2.5,0.9-2.7,5.8-6c5-3.4,1.9-3.4,1.7-4.7
						c-0.2-1.3-2.3-0.7-4.7-1.7c0,0,0-0.1-0.1-0.1c-2.3-1-1-3.5,0.5-4.5c1.5-0.9,3.2-1.1,4.7-0.2c1.5,0.9,1.5,1.7,5.5,0.2
						c4-1.5,4.2-0.2,5.5,1.7c0.9,1.2,1.9,3,3,4.7c0.6,1,1.2,1.8,1.7,2.5c1.5,1.9,5.3,0,8.5-1.8c0,0,0.1-0.1,0.1-0.1
						c3.1-1.9,2-4.9,2.2-7.5c0.2-2.6-1.9-2.6-3-3.6c-1.1-0.9-1.4-4.3-2.7-6.3c-1.3-1.9-4-1.7-5.7-1.1c-1.7,0.6-4.5,3.1-5.1,2.8
						c-0.6-0.2-0.4-3-1.7-4c-0.8-0.6-3.8-0.7-6.4-1.1c11.1-10.2,25.8-16.6,42.1-16.6c17.1,0,32.5,6.9,43.7,18.1
						c2.5,2.5,4.8,5.3,6.8,8.2c-6.2,2-17.1,5.8-17.9,6.9c-1.1,1.5-5.1,2.3-7,1.3c-1.9-0.9-3.2-2.1-5.1-1.9c-1.9,0.2-2.7,0.4-4,1.9
						c-0.8,1-2.4,2.3-4,3c-1,0.4-1.9,0.7-2.7,0.2c-0.2-0.1-0.5-0.1-0.7-0.2c-0.7-0.1-1.3-0.1-1.8,0.1c-0.8,0.3-1.4,0.8-1.4,0.8
						c-1.9,2.7,0.4,6.1,1.9,6c1.5-0.2,3.4-3.2,4.3-3.2c0.9,0,3.1,1.7,3.4,2.4c0.3,0.7-1.5,4.8-2.7,5c-1.1,0.2-5.3,1.5-6.3,1.5
						c-0.9,0-5.1-1.7-6.1-0.6c-1,1.2-2.8,1-1.9,3.6c0.9,2.7,0,4.7-0.8,4.9c-0.8,0.2-7,1.9-0.8,2.1c6.2,0.2,7.8-1.9,9.1-2.1
						c1.3-0.2,3.6-1.9,5.1-1.1c1.5,0.8,3.9-0.4,5.1,0c1.3,0.4,4.1-3.1,5.4-1.8c1.3,1.3,1,3.9,0.6,4.9c-0.4,0.9-2.7,1.7-2.1,3
						c0.6,1.3,1.7,3,3.4,4.4c1.7,1.3,2.8,3,4,1.7c1.1-1.3,1.1-3,1.7-3.8c0.6-0.7,5.9,0.2,6.1,1.3c0.2,1.2,2.8,3.6,3.4,3.8
						c0.6,0.2,2.7,1.1,2.7,1.1s0.6,0.7,1.5,2.7c0.9,2,2.8,2,4.2,1.7c1.3-0.4,2.4-3.2,4.2-3c1.8,0.2,2.7-0.6,4.5,1.3
						c1.8,1.8,2.2,2.2,3.6,3.2C247.7-138.1,242.1-128.4,234.4-120.6z"/>
				</g>
			</g>
		</g>
	</g>
	<g>
		<g>
			<polygon fill="#DA745F" points="45.7,-166.4 71.4,-192.1 63.6,-199.9 30.2,-166.4 63.6,-133 71.4,-140.8 			"/>
		</g>
		<g>
			<polygon fill="#DA745F" points="329.9,-166.4 304.2,-192.1 312,-199.9 345.4,-166.4 312,-133 304.2,-140.8 			"/>
		</g>
	</g>
</g>
<rect x="133.8" y="-477.7" fill="#D6B9AD" width="9.8" height="6"/>
<g>
	<path fill="#3F5D69" d="M275.9-419.9c1.3-6.2,2-12.6,2-19.1c0-6.6-0.7-13-2-19.2l-20.6-1.4c-1.5-5.1-3.6-9.9-6.2-14.4l14.4-14.1
		c-7-10.8-16.3-20.1-27.1-27.1l-15.5,13.6c-4.6-2.4-9.4-4.4-14.5-5.8l0.2-20.2c-6.2-1.3-12.6-2-19.1-2c-6.6,0-13,0.7-19.2,2.1
		l-1.4,20.6c-5.1,1.5-9.9,3.6-14.4,6.2l-14.1-14.4c-10.8,7-20.1,16.3-27.1,27.1l13.6,15.5c-2.4,4.6-4.4,9.4-5.8,14.5l-20.1-0.2
		c-1.3,6.2-2,12.6-2,19.1c0,6.6,0.7,13,2,19.2l20.6,1.4c1.5,5.1,3.6,9.9,6.2,14.4l-14.4,14.1c7,10.8,16.3,20.1,27.1,27.1l15.5-13.6
		c4.6,2.4,9.4,4.4,14.5,5.8l-0.2,20.1c6.2,1.3,12.6,2,19.1,2c6.6,0,13-0.7,19.2-2l1.4-20.6c5.1-1.5,9.9-3.6,14.4-6.2l14.1,14.4
		c10.8-7,20.1-16.3,27.1-27.1l-13.6-15.5c2.4-4.6,4.4-9.4,5.8-14.5L275.9-419.9z M187.3-411.3c-15.3,0-27.7-12.4-27.7-27.7
		c0-15.3,12.4-27.7,27.7-27.7c15.3,0,27.7,12.4,27.7,27.7C215-423.7,202.6-411.3,187.3-411.3z"/>
	<path fill="#70A9BF" d="M232-434.9c0-24.7-20-44.7-44.7-44.7c-24.7,0-44.7,20-44.7,44.7c0,24.7,20,44.7,44.7,44.7
		C212-390.2,232-410.2,232-434.9z M159.6-439c0-15.3,12.4-27.7,27.7-27.7c15.3,0,27.7,12.4,27.7,27.7c0,15.3-12.4,27.7-27.7,27.7
		C172-411.3,159.6-423.7,159.6-439z"/>
	<path fill="#4A7689" d="M187.3-483.7c-24.7,0-44.7,20-44.7,44.7c0,24.7,20,44.7,44.7,44.7c24.7,0,44.7-20,44.7-44.7
		C232-463.7,212-483.7,187.3-483.7z M187.3-412.4c-14.7,0-26.6-11.9-26.6-26.6c0-14.7,11.9-26.6,26.6-26.6
		c14.7,0,26.6,11.9,26.6,26.6C213.9-424.4,202-412.4,187.3-412.4z"/>
	<g>
		<path fill="#70A9BF" d="M188.2-477.8c16.4,0,31,8.1,39.9,20.4c-7-15.5-22.6-26.3-40.8-26.3c-20.8,0-38.3,14.2-43.3,33.5
			C152-466.6,168.8-477.8,188.2-477.8z"/>
	</g>
	<g>
		<path fill="#4A7689" d="M187.9-497.3c25.2,0,47.5,12.4,61.2,31.4c-10.7-23.8-34.7-40.4-62.5-40.4c-31.9,0-58.8,21.8-66.4,51.4
			C132.4-480.1,158.1-497.3,187.9-497.3z"/>
	</g>
	<g>
		<path fill-rule="evenodd" clip-rule="evenodd" fill="#A7845D" d="M281.3-535c0.7-3,0.9-6.1,0.5-9.1l-7.7-1.2c-0.3-1-0.6-2.1-1.1-3
			l5.2-5.8c-0.8-1.3-1.7-2.5-2.7-3.7c-1-1.2-2.2-2.2-3.3-3.1l-6.3,4.6c-0.9-0.6-1.9-1-2.9-1.4l-0.4-7.8c-3-0.7-6.1-0.9-9.1-0.5
			l-1.2,7.7c-1,0.3-2,0.6-3,1.1l-5.8-5.2c-1.3,0.8-2.5,1.7-3.7,2.7c-1.2,1-2.2,2.1-3.1,3.3l4.6,6.3c-0.6,0.9-1,1.9-1.4,2.9l-7.8,0.4
			c-0.7,3-0.9,6.1-0.5,9.1l7.7,1.2c0.3,1,0.6,2,1.1,3l-5.2,5.8c0.8,1.3,1.7,2.5,2.7,3.7c1,1.2,2.1,2.2,3.3,3.1l6.3-4.6
			c0.9,0.6,1.9,1,2.9,1.4l0.4,7.8c3,0.7,6.1,0.9,9.1,0.5l1.2-7.7c1-0.3,2.1-0.6,3-1.1l5.8,5.2c1.3-0.8,2.5-1.7,3.7-2.7
			c1.2-1,2.2-2.2,3.1-3.3l-4.6-6.3c0.6-0.9,1-1.9,1.4-2.9L281.3-535z M263.5-533.2c-4.2,3.8-10.8,3.4-14.6-0.8
			c-3.8-4.2-3.4-10.8,0.8-14.6c4.2-3.8,10.8-3.4,14.6,0.8C268.1-543.5,267.7-537,263.5-533.2z"/>
	</g>
	<g>
		<path fill-rule="evenodd" clip-rule="evenodd" fill="#DA745F" d="M333.5-469.1l14,3.5c2.9-4.9,5-10.3,6-16l-12.8-6.4
			c0.1-2.1,0.1-4.2-0.2-6.3l12.4-7.4c-0.7-2.7-1.6-5.4-2.8-8.1c-1.2-2.6-2.6-5.1-4.2-7.4l-13.6,4.5c-1.4-1.6-3-3-4.6-4.3l3.5-14
			c-4.9-2.9-10.3-5-16-6l-6.4,12.8c-2.1-0.1-4.2-0.1-6.3,0.2l-7.4-12.4c-2.7,0.7-5.4,1.6-8.1,2.8c-2.6,1.2-5.1,2.6-7.4,4.2l4.5,13.6
			c-1.6,1.4-3,3-4.3,4.6l-14-3.5c-2.9,4.9-5,10.3-6,16l12.8,6.4c-0.1,2.1-0.1,4.2,0.2,6.3l-12.4,7.4c0.7,2.7,1.6,5.4,2.8,8.1
			c1.2,2.6,2.6,5.1,4.2,7.4l13.6-4.5c1.4,1.6,3,3,4.6,4.3l-3.5,14c4.9,2.9,10.3,5,16,6l6.4-12.8c2.1,0.1,4.2,0.1,6.3-0.2l7.4,12.4
			c2.7-0.7,5.4-1.6,8.1-2.8c2.6-1.2,5.1-2.6,7.4-4.2l-4.5-13.6C330.8-465.9,332.2-467.4,333.5-469.1z M314.5-472.4
			c-9.7,4.4-21.2,0.1-25.7-9.6c-4.4-9.7-0.1-21.2,9.6-25.7c9.7-4.4,21.2-0.1,25.7,9.6C328.6-488.4,324.3-476.9,314.5-472.4z"/>
	</g>
</g>
<g>
	<g>
		<path fill="#A7845D" d="M239.1,42.7c0-0.1,0-0.1,0-0.2c0-9-39.2-16.3-87.7-16.3c-48.4,0-87.7,7.3-87.7,16.3c0,0.1,0,0.1,0,0.2h0
			v120.7c0,9.3,2.1,19,10,23.7c12.8,7.6,77.6,42.8,77.6,42.8c0.2-0.1,64.8-35.2,77.6-42.8c8-4.7,10-14.3,10-23.7L239.1,42.7
			L239.1,42.7z"/>
		<path fill="#ECC8A1" d="M224.5,53.4c0-0.1,0-0.1,0-0.2c0-7.5-32.7-13.6-73.1-13.6c-40.3,0-73.1,6.1-73.1,13.6c0,0.1,0,0.1,0,0.2h0
			V154v3.7c0,7.8,1.7,15.8,8.4,19.7c10.7,6.3,64.7,35.6,64.7,35.6c0.1-0.1,54-29.4,64.7-35.6c6.7-3.9,8.4-11.9,8.4-19.7V154
			L224.5,53.4L224.5,53.4z"/>
		<path fill="#DA745F" d="M215.9,62c0-0.1,0-0.1,0-0.2c0-6.6-28.9-12-64.4-12c-35.6,0-64.4,5.4-64.4,12c0,0.1,0,0.1,0,0.2h0v88.7
			v3.2c0,6.9,1.5,13.9,7.4,17.4c9.4,5.6,57.1,31.4,57.1,31.4c0.1-0.1,47.6-25.9,57.1-31.4c5.9-3.5,7.4-10.5,7.4-17.4v-3.2L215.9,62
			L215.9,62z"/>
	</g>
	<path fill-rule="evenodd" clip-rule="evenodd" fill="#FFFFFF" d="M143.5,155.3c-3.2-0.1-6.4-1.3-8.9-3.6l-26.6-24.5
		c-5.5-5.1-5.8-13.6-0.7-19.1c5.1-5.4,13.6-5.8,19.1-0.7l16.7,15.5l32.7-34.5c5.1-5.5,13.7-5.7,19.1-0.6c5.4,5.2,5.6,13.7,0.5,19.1
		l-41.8,44.2C150.8,153.9,147.2,155.4,143.5,155.3L143.5,155.3z"/>
</g>
<g>
	<path fill="#4A7689" d="M157.8,340c11.6-7,25.6-9.5,41.9-7.7c14,1.6,26.3,5.9,36.5,10c6.5,2.6,13.1,6.3,19.4,11.1
		c6.1,4.6,12.1,10.2,17.7,16.7c11,12.5,20.8,28.3,28.4,45.5c7.7,17.5,13,36.4,15.3,54.6c2.5,19.8,1.7,38.4-2.4,55.3
		c-1.8,7.2-5,13.1-9.5,17.1c-2.3,2-4.9,3.5-7.6,4.3l0.6-5.5c1.3-0.6,2.5-1.5,3.7-2.5c3.7-3.3,6.5-8.3,8-14.5
		c7.8-31.9,3.1-70.8-12.7-106.8c-15.2-34.7-38.7-61.2-62.9-70.7c-6.5-2.6-20-7.9-35.3-9.7c-15.2-1.7-28.2,0.7-38.8,7
		c-10.9,6.5-10.2,18.1-8.8,24.5c1.6,7.4,5.7,15.1,11.2,21c1.7,1.8,3.4,3.4,5.2,4.8L164,394c-1.1-0.1-2.2,0.1-3.2,0.6
		c-0.5-0.5-1.1-1.1-1.6-1.6c-6.1-6.6-10.6-15.1-12.4-23.3C144,356.8,148,345.9,157.8,340z"/>
	
		<rect x="105.3" y="419.4" transform="matrix(-0.9937 -0.1123 0.1123 -0.9937 283.7529 986.2466)" fill="#3F5D69" width="128.8" height="131.5"/>
	
		<rect x="108" y="379.2" transform="matrix(-0.9937 -0.1123 0.1123 -0.9937 291.8208 938.8956)" fill="#FFFFFF" width="128.8" height="164"/>
	
		<rect x="114.9" y="379.6" transform="matrix(-0.9937 -0.1123 0.1123 -0.9937 312.4763 817.652)" fill="#3F5D69" width="128.8" height="40.8"/>
	<g>
		<circle fill="#905D41" cx="172.7" cy="458" r="31.7"/>
		<circle fill="#DA745F" cx="172.7" cy="458" r="28.5"/>
		<path fill="#FFFFFF" d="M149.6,469.2c1.9-2.1,7.5-0.3,12.1-0.9c0.3-0.2,1.1-0.4,2-1c1-0.6,1.6-1.2,1.6-1.2l0,0
			c0.2-0.1,0.5-0.2,1-0.2c0.6-1.1,0.9-2.5,1-3.7c-1.2-2.1-1.9-4.8-1.6-7.7c-0.4-0.4-0.7-1.3-0.8-2.3c-0.1-1.4-0.5-2.7,0.8-2.8
			c0-0.1,0-0.1,0-0.2c-0.3-1.4-0.9-2.6-0.9-4.1c-0.1-1.8,0.5-4.1,2.9-5.7c1.2-0.8,2.7-1.2,4.3-1.1c1.3-1.2,2.7-1.4,4.6-1.2
			c0.6,0.1,1.3,0.2,2.1,0.4c2.2,0.5,4.3,2.7,5.4,4.4c0.8,1.2,0.8,2.8,0.4,4.5c-0.3,1.6-1,3.2-1.5,4.7c0,0.1-0.1,0.2-0.1,0.4
			c0,0,0.1,0,0.1,0c1.4,0.4,0.6,1.5,0.2,2.9c-0.1,0.3-0.2,0.5-0.3,0.7c-0.3,0.6-0.7,1.1-1.1,1.3c-0.2,1.1-0.5,2.2-0.9,3.2
			c-0.7,1.6-1.6,3-2.6,4c-0.1,1-0.5,2.4-0.3,3.4c0.2,0.1,0.4,0.2,0.5,0.3c0,0,0,0,0,0s0.5,0.7,1.3,1.6c1,1,1.9,1.3,1.9,1.5
			c0,0,0,0,0,0.1c3.7,1.8,9.6,2.5,10.5,3.7c0.3,0.4,0.6,1.8,0.9,3.8c-5.9,5.9-14.4,9.1-23.3,8.1c-9.4-1.1-17.1-6.5-21.5-14.1
			C148.6,470.8,149.1,469.7,149.6,469.2z M165.6,466.6c0,0,0.1,0.1,0.1,0.1c0,0,0,0,0.1-0.1C165.7,466.6,165.7,466.6,165.6,466.6z"
			/>
	</g>
	<g>
		
			<rect x="118.8" y="495.9" transform="matrix(-0.9937 -0.1123 0.1123 -0.9937 279.1423 1013.2936)" fill="#E2D7B4" width="98.5" height="5.8"/>
		
			<rect x="117.3" y="509.9" transform="matrix(-0.9937 -0.1123 0.1123 -0.9937 274.4124 1041.088)" fill="#E2D7B4" width="98.5" height="5.8"/>
		
			<rect x="173.3" y="527.2" transform="matrix(-0.9937 -0.1123 0.1123 -0.9937 326.547 1078.575)" fill="#E2D7B4" width="40.7" height="5.8"/>
	</g>
	<path fill="#70A9BF" d="M158.2,398.6c-0.3,2.9,1.7,5.4,4.6,5.8l31.5,3.6c2.9,0.3,5.4-1.7,5.8-4.6l0,0c0.3-2.9-1.7-5.4-4.6-5.8
		L164,394C161.1,393.7,158.5,395.8,158.2,398.6L158.2,398.6z"/>
	<path fill="#4A7689" d="M196.4,396.7c6.1-3,13.1-6.4,22.3-5.3c3.8,0.4,7.7,1.6,11.8,3.5c7.7,3.7,14.4,10.2,19.9,19.4
		c4.6,7.7,8.5,17.6,11.5,29.4c5.5,21.5,7.5,45.9,9,63.8l0.2,2.2c1.6,19.9,9.4,29.5,16.7,32.3c1.1,0.4,2.2,0.7,3.2,0.8
		c2.5,0.3,5-0.2,7.4-1.3l-0.6,5.5c-2.4,0.7-4.8,1-7.3,0.7c-1.1-0.1-2.2-0.4-3.3-0.7c-4.8-1.5-9.2-4.9-12.7-9.9
		c-4.6-6.6-7.5-15.9-8.4-27l-0.2-2.2c-1.4-17.7-3.4-41.9-8.8-63c-6.2-24.2-15.9-39.5-28.7-45.6c-3.6-1.7-6.9-2.7-10.2-3.1
		c-7.3-0.8-13,1.7-18.5,4.4c-0.7-1.6-2.3-2.7-4.1-2.9l-0.8-0.1C195.2,397.2,195.8,396.9,196.4,396.7z"/>
	<path fill="#4A7689" d="M168,394.5c4.4,3.4,9.1,5.5,13.7,6c0,0,0,0,0,0c1.1,0.1,2.2,0.2,3.2,0.1c3.2-0.2,6.2-1.5,9.7-3.1l0.8,0.1
		c1.9,0.2,3.4,1.4,4.1,2.9c-0.4,0.2-0.7,0.3-1.1,0.5c-4.4,2.2-8.6,4.2-13.3,4.4c-1.3,0.1-2.7,0-4-0.1c0,0,0,0,0,0
		c-7-0.8-14.2-4.6-20.4-10.7c0.9-0.5,2-0.8,3.2-0.6L168,394.5z"/>
	<path fill="#4A7689" d="M164,394l4.1,0.5c2.6,2,5.3,3.6,8.1,4.6l-7.6,1.7c-2.7-1.6-5.2-3.7-7.7-6.1
		C161.8,394.2,162.8,393.9,164,394z"/>
</g>
<g>
	<g>
		<path fill="#A7845D" d="M308.3,117.7c0-0.1,0-0.1,0-0.2c0-6.1-26.6-11.1-59.5-11.1c-32.8,0-59.5,5-59.5,11.1c0,0.1,0,0.1,0,0.2h0
			v81.9c0,6.3,1.4,12.9,6.8,16c8.7,5.1,52.6,29,52.6,29c0.1-0.1,43.9-23.9,52.6-29c5.4-3.2,6.8-9.7,6.8-16L308.3,117.7L308.3,117.7z
			"/>
		<path fill="#ECC8A1" d="M298.4,124.9c0,0,0-0.1,0-0.1c0-5.1-22.2-9.2-49.6-9.2c-27.4,0-49.6,4.1-49.6,9.2c0,0,0,0.1,0,0.1h0v68.2
			v2.5c0,5.3,1.2,10.7,5.7,13.4c7.3,4.3,43.9,24.2,43.9,24.2c0.1-0.1,36.6-19.9,43.9-24.2c4.5-2.7,5.7-8.1,5.7-13.4v-2.5
			L298.4,124.9L298.4,124.9z"/>
		<path fill="#DA745F" d="M292.6,130.7c0,0,0-0.1,0-0.1c0-4.5-19.6-8.1-43.7-8.1c-24.1,0-43.7,3.6-43.7,8.1c0,0,0,0.1,0,0.1h0v60.2
			v2.2c0,4.7,1,9.5,5,11.8c6.4,3.8,38.7,21.3,38.7,21.3c0.1-0.1,32.3-17.6,38.7-21.3c4-2.3,5-7.1,5-11.8v-2.2L292.6,130.7
			L292.6,130.7z"/>
	</g>
	<path fill-rule="evenodd" clip-rule="evenodd" fill="#FFFFFF" d="M243.5,194c-2.2,0-4.3-0.9-6-2.4l-18-16.6
		c-3.7-3.4-3.9-9.2-0.5-13c3.4-3.7,9.2-3.9,13-0.5l11.3,10.5l22.1-23.4c3.5-3.7,9.3-3.8,13-0.4c3.7,3.5,3.8,9.3,0.4,13l-28.4,30
		C248.5,193.1,246,194.1,243.5,194L243.5,194z"/>
</g>
</svg>
