<?xml version="1.0" encoding="utf-8"?>
<!-- Generator: Adobe Illustrator 17.1.0, SVG Export Plug-In . SVG Version: 6.00 Build 0)  -->
<!DOCTYPE svg PUBLIC "-//W3C//DTD SVG 1.1//EN" "http://www.w3.org/Graphics/SVG/1.1/DTD/svg11.dtd">
<svg version="1.1" id="Layer_1" xmlns="http://www.w3.org/2000/svg" xmlns:xlink="http://www.w3.org/1999/xlink" x="0px" y="0px"
	 viewBox="0 0 392 233.2" enable-background="new 0 0 392 233.2" xml:space="preserve">
<circle fill="#A7845D" cx="-627.9" cy="200.9" r="117.5"/>
<rect x="-678.8" y="-388.6" fill="#D6B9AD" width="6.7" height="5"/>
<rect x="-693" y="-388.6" fill="#D6B9AD" width="9.4" height="5"/>
<rect x="-707.1" y="-388.6" fill="#D6B9AD" width="9.4" height="5"/>
<g>
	<g>
		<path fill-rule="evenodd" clip-rule="evenodd" fill="#A7845D" d="M-511.9-538.9h-1.4h-189.4h-1.4c-8.8,0-15.9,7.1-15.9,15.9v152.8
			c0,8.8,7.1,15.9,15.9,15.9h1.4h189.4h1.4c8.8,0,15.9-7.1,15.9-15.9v-152.8C-496-531.7-503.1-538.9-511.9-538.9z"/>
		<g>
			<path fill-rule="evenodd" clip-rule="evenodd" fill="#905D41" d="M-511.9-538.9h-192.3c-8.8,0-15.9,7.1-15.9,15.9v6.2H-496v-6.2
				C-496-531.7-503.1-538.9-511.9-538.9z"/>
		</g>
		<g>
			<path fill-rule="evenodd" clip-rule="evenodd" fill="#FFFFFF" d="M-704.2-528.2h-6.3l2.4-2.4c0.4-0.4,0.4-1.1,0-1.5
				c-0.4-0.4-1.1-0.4-1.5,0l-4.2,4.2c-0.4,0.4-0.4,1.1,0,1.5l4.2,4.2c0.4,0.4,1.1,0.4,1.5,0c0.4-0.4,0.4-1.1,0-1.5l-2.4-2.4h6.3
				c0.6,0,1-0.5,1-1C-703.1-527.8-703.6-528.2-704.2-528.2z"/>
		</g>
		<g>
			<path fill-rule="evenodd" clip-rule="evenodd" fill="#FFFFFF" d="M-697.9-528.2h6.3l-2.4-2.4c-0.4-0.4-0.4-1.1,0-1.5
				c0.4-0.4,1.1-0.4,1.5,0l4.2,4.2c0.4,0.4,0.4,1.1,0,1.5l-4.2,4.2c-0.4,0.4-1.1,0.4-1.5,0c-0.4-0.4-0.4-1.1,0-1.5l2.4-2.4h-6.3
				c-0.6,0-1-0.5-1-1C-698.9-527.8-698.5-528.2-697.9-528.2z"/>
		</g>
		<g>
			<g>
				<g>
					<circle fill-rule="evenodd" clip-rule="evenodd" fill="#ECC8A1" cx="-532.2" cy="-527.4" r="4.8"/>
					<circle fill-rule="evenodd" clip-rule="evenodd" fill="#4CB2B9" cx="-532.2" cy="-527.3" r="3.3"/>
				</g>
				<g>
					<circle fill-rule="evenodd" clip-rule="evenodd" fill="#ECC8A1" cx="-520.2" cy="-527.4" r="4.8"/>
					<circle fill-rule="evenodd" clip-rule="evenodd" fill="#FFFFFF" cx="-520.2" cy="-527.3" r="3.3"/>
				</g>
				<g>
					<circle fill-rule="evenodd" clip-rule="evenodd" fill="#ECC8A1" cx="-508.2" cy="-527.4" r="4.8"/>
					<circle fill-rule="evenodd" clip-rule="evenodd" fill="#43696F" cx="-508.2" cy="-527.3" r="3.3"/>
				</g>
			</g>
		</g>
		<g>
			<path fill-rule="evenodd" clip-rule="evenodd" fill="#FAEDE5" d="M-548.5-533.8h-11.6h-105.1h-11.6c-3.6,0-6.6,3-6.6,6.6
				c0,3.6,3,6.6,6.6,6.6h11.6h105.1h11.6c3.6,0,6.6-3,6.6-6.6C-541.9-530.9-544.9-533.8-548.5-533.8z"/>
		</g>
	</g>
	<g>
		<circle fill-rule="evenodd" clip-rule="evenodd" fill="#905D41" cx="-605.5" cy="-428.4" r="67.1"/>
		<circle fill-rule="evenodd" clip-rule="evenodd" fill="#FFFFFF" cx="-605.5" cy="-439.2" r="67.1"/>
		<g>
			<g>
				<path fill-rule="evenodd" clip-rule="evenodd" fill="#ECC8A1" d="M-581.2-419.6c-1.3-0.4-2.5-3.2-2.8-5.3
					c-0.4-2.1-1.9-4.5-4-5.5c-2.1-1-3.4,0-5.3-1c-1.9-1-4.9-3-6.8-3.6c-1.9-0.6-4.5-0.2-6.4-1.1c-1.9-0.9-4.7,1.5-4.7,1.5
					s-2.3,4.2-3,5.3c-0.7,1.1-1,5.9-0.5,7.4c0.4,1.5,4.1,5.1,4.1,5.1s1.7,2.9,3,2.9c1.3,0,3.8-1.9,5.9-2.1c2.1-0.2,3.2,1.5,3.8,2.4
					c0.6,1,1,5.3,0.8,6.6c-0.2,1.3,0.2,9.8,0.7,10.6c0.6,0.8,4.7,4.7,6.2,4.7c1.5,0,3.2-2.6,4.6-3.8c1.3-1.1,3-5.9,3-7.2v-6.8
					c0-1.1,1.7-2.8,3-4.2c1.3-1.3,2.6-3.8,2.2-5.3C-577.8-420.3-579.9-419.2-581.2-419.6z"/>
			</g>
			<g>
				<g>
					<path fill-rule="evenodd" clip-rule="evenodd" fill="#ECC8A1" d="M-605.1-507.8c-38.5,0-69.7,31.2-69.7,69.7
						c0,38.5,31.2,69.7,69.7,69.7c38.5,0,69.7-31.2,69.7-69.7C-535.4-476.6-566.6-507.8-605.1-507.8z M-655.2-401.8
						c-3.4-4.7-6.2-9.8-8.3-15.3c1.6,0.4,3.3,0.5,4.6,0.8c2.3,0.6,4.6,4.2,5.5,4.6C-652.4-411.5-654.2-403.1-655.2-401.8z
						 M-561.6-394.6c-11.2,11.2-26.7,18.1-43.7,18.1c-10.1,0-19.7-2.5-28.1-6.8c1-2,1.8-8,1.8-8s1.5-15,0.9-15.9
						c-0.6-1-4.4-4.5-6.8-5.7c-2.5-1.2-4.7,0.2-6.8-0.6c-2.1-0.7-3-4-4.5-5.1c-1.5-1.1-3.8-1.1-6.1-1.8c-2.4-0.7-3.9-3.5-4.5-4.7
						c-0.6-1.1-0.2-3.9,1.5-4.2c1.8-0.3,3.6-0.6,10.1-3.7c6.5-3.2-0.8-5.2-0.4-9.7c0.4-4.6,6.4-4.2,8.9-6.8c2.5-2.6-1.7-4.4-3.6-5.8
						c-1.9-1.5-4.9,0.4-6,2.4c-1.1,2.1-1.5,3.8-3.8,3.4c-2.3-0.4-3-0.8-4.3-3.4c-1.3-2.5,0.9-2.7,5.8-6c5-3.4,1.9-3.4,1.7-4.7
						c-0.2-1.3-2.3-0.7-4.7-1.7c0,0,0-0.1-0.1-0.1c-2.3-1-1-3.5,0.5-4.5c1.5-0.9,3.2-1.1,4.7-0.2c1.5,0.9,1.5,1.7,5.5,0.2
						c4-1.5,4.2-0.2,5.5,1.7c0.9,1.2,1.9,3,3,4.7c0.6,1,1.2,1.8,1.7,2.5c1.5,1.9,5.3,0,8.5-1.8c0,0,0.1-0.1,0.1-0.1
						c3.1-1.9,2-4.9,2.2-7.5c0.2-2.6-1.9-2.6-3-3.6c-1.1-0.9-1.4-4.3-2.7-6.3c-1.3-1.9-4-1.7-5.7-1.1c-1.7,0.6-4.5,3.1-5.1,2.8
						c-0.6-0.2-0.4-3-1.7-4c-0.8-0.6-3.8-0.7-6.4-1.1c11.1-10.2,25.8-16.6,42.1-16.6c17.1,0,32.5,6.9,43.7,18.1
						c2.5,2.5,4.8,5.3,6.8,8.2c-6.2,2-17.1,5.8-17.9,6.9c-1.1,1.5-5.1,2.3-7,1.3c-1.9-0.9-3.2-2.1-5.1-1.9c-1.9,0.2-2.7,0.4-4,1.9
						c-0.8,1-2.4,2.3-4,3c-1,0.4-1.9,0.7-2.7,0.2c-0.2-0.1-0.5-0.1-0.7-0.2c-0.7-0.1-1.3-0.1-1.8,0.1c-0.8,0.3-1.4,0.8-1.4,0.8
						c-1.9,2.7,0.4,6.1,1.9,6c1.5-0.2,3.4-3.2,4.3-3.2c0.9,0,3.1,1.7,3.4,2.4c0.3,0.7-1.5,4.8-2.7,5c-1.1,0.2-5.3,1.5-6.3,1.5
						c-0.9,0-5.1-1.7-6.1-0.6c-1,1.2-2.8,1-1.9,3.6c0.9,2.7,0,4.7-0.8,4.9c-0.8,0.2-7,1.9-0.8,2.1c6.2,0.2,7.8-1.9,9.1-2.1
						c1.3-0.2,3.6-1.9,5.1-1.1c1.5,0.8,3.9-0.4,5.1,0c1.3,0.4,4.1-3.1,5.4-1.8c1.3,1.3,1,3.9,0.6,4.9c-0.4,0.9-2.7,1.7-2.1,3
						c0.6,1.3,1.7,3,3.4,4.4c1.7,1.3,2.8,3,4,1.7c1.1-1.3,1.1-3,1.7-3.8c0.6-0.7,5.9,0.2,6.1,1.3c0.2,1.2,2.8,3.6,3.4,3.8
						c0.6,0.2,2.7,1.1,2.7,1.1s0.6,0.7,1.5,2.7c0.9,2,2.8,2,4.2,1.7c1.3-0.4,2.4-3.2,4.2-3c1.8,0.2,2.7-0.6,4.5,1.3
						c1.8,1.8,2.2,2.2,3.6,3.2C-548.3-412.1-553.9-402.4-561.6-394.6z"/>
				</g>
			</g>
		</g>
	</g>
	<g>
		<g>
			<polygon fill="#DA745F" points="-750.3,-440.4 -724.6,-466.1 -732.4,-473.9 -765.8,-440.4 -732.4,-407 -724.6,-414.8 			"/>
		</g>
		<g>
			<polygon fill="#DA745F" points="-466.1,-440.4 -491.8,-466.1 -484,-473.9 -450.6,-440.4 -484,-407 -491.8,-414.8 			"/>
		</g>
	</g>
</g>
<rect x="-662.2" y="-751.7" fill="#D6B9AD" width="9.8" height="6"/>
<g>
	<path fill="#3F5D69" d="M-520.1-693.9c1.3-6.2,2-12.6,2-19.1c0-6.6-0.7-13-2-19.2l-20.6-1.4c-1.5-5.1-3.6-9.9-6.2-14.4l14.4-14.1
		c-7-10.8-16.3-20.1-27.1-27.1l-15.5,13.6c-4.6-2.4-9.4-4.4-14.5-5.8l0.2-20.2c-6.2-1.3-12.6-2-19.1-2c-6.6,0-13,0.7-19.2,2.1
		l-1.4,20.6c-5.1,1.5-9.9,3.6-14.4,6.2l-14.1-14.4c-10.8,7-20.1,16.3-27.1,27.1l13.6,15.5c-2.4,4.6-4.4,9.4-5.8,14.5l-20.1-0.2
		c-1.3,6.2-2,12.6-2,19.1c0,6.6,0.7,13,2,19.2l20.6,1.4c1.5,5.1,3.6,9.9,6.2,14.4l-14.4,14.1c7,10.8,16.3,20.1,27.1,27.1l15.5-13.6
		c4.6,2.4,9.4,4.4,14.5,5.8l-0.2,20.1c6.2,1.3,12.6,2,19.1,2c6.6,0,13-0.7,19.2-2l1.4-20.6c5.1-1.5,9.9-3.6,14.4-6.2l14.1,14.4
		c10.8-7,20.1-16.3,27.1-27.1l-13.6-15.5c2.4-4.6,4.4-9.4,5.8-14.5L-520.1-693.9z M-608.7-685.3c-15.3,0-27.7-12.4-27.7-27.7
		c0-15.3,12.4-27.7,27.7-27.7c15.3,0,27.7,12.4,27.7,27.7C-581-697.7-593.4-685.3-608.7-685.3z"/>
	<path fill="#70A9BF" d="M-564-708.9c0-24.7-20-44.7-44.7-44.7c-24.7,0-44.7,20-44.7,44.7c0,24.7,20,44.7,44.7,44.7
		C-584-664.2-564-684.2-564-708.9z M-636.4-713c0-15.3,12.4-27.7,27.7-27.7c15.3,0,27.7,12.4,27.7,27.7c0,15.3-12.4,27.7-27.7,27.7
		C-624-685.3-636.4-697.7-636.4-713z"/>
	<path fill="#4A7689" d="M-608.7-757.7c-24.7,0-44.7,20-44.7,44.7c0,24.7,20,44.7,44.7,44.7c24.7,0,44.7-20,44.7-44.7
		C-564-737.7-584-757.7-608.7-757.7z M-608.7-686.4c-14.7,0-26.6-11.9-26.6-26.6c0-14.7,11.9-26.6,26.6-26.6
		c14.7,0,26.6,11.9,26.6,26.6C-582.1-698.4-594-686.4-608.7-686.4z"/>
	<g>
		<path fill="#70A9BF" d="M-607.8-751.8c16.4,0,31,8.1,39.9,20.4c-7-15.5-22.6-26.3-40.8-26.3c-20.8,0-38.3,14.2-43.3,33.5
			C-644-740.6-627.2-751.8-607.8-751.8z"/>
	</g>
	<g>
		<path fill="#4A7689" d="M-608.1-771.3c25.2,0,47.5,12.4,61.2,31.4c-10.7-23.8-34.7-40.4-62.5-40.4c-31.9,0-58.8,21.8-66.4,51.4
			C-663.6-754.1-637.9-771.3-608.1-771.3z"/>
	</g>
	<g>
		<path fill-rule="evenodd" clip-rule="evenodd" fill="#A7845D" d="M-514.7-809c0.7-3,0.9-6.1,0.5-9.1l-7.7-1.2
			c-0.3-1-0.6-2.1-1.1-3l5.2-5.8c-0.8-1.3-1.7-2.5-2.7-3.7c-1-1.2-2.2-2.2-3.3-3.1l-6.3,4.6c-0.9-0.6-1.9-1-2.9-1.4l-0.4-7.8
			c-3-0.7-6.1-0.9-9.1-0.5l-1.2,7.7c-1,0.3-2,0.6-3,1.1l-5.8-5.2c-1.3,0.8-2.5,1.7-3.7,2.7c-1.2,1-2.2,2.1-3.1,3.3l4.6,6.3
			c-0.6,0.9-1,1.9-1.4,2.9l-7.8,0.4c-0.7,3-0.9,6.1-0.5,9.1l7.7,1.2c0.3,1,0.6,2,1.1,3l-5.2,5.8c0.8,1.3,1.7,2.5,2.7,3.7
			c1,1.2,2.1,2.2,3.3,3.1l6.3-4.6c0.9,0.6,1.9,1,2.9,1.4l0.4,7.8c3,0.7,6.1,0.9,9.1,0.5l1.2-7.7c1-0.3,2.1-0.6,3-1.1l5.8,5.2
			c1.3-0.8,2.5-1.7,3.7-2.7c1.2-1,2.2-2.2,3.1-3.3l-4.6-6.3c0.6-0.9,1-1.9,1.4-2.9L-514.7-809z M-532.5-807.2
			c-4.2,3.8-10.8,3.4-14.6-0.8c-3.8-4.2-3.4-10.8,0.8-14.6c4.2-3.8,10.8-3.4,14.6,0.8C-527.9-817.5-528.3-811-532.5-807.2z"/>
	</g>
	<g>
		<path fill-rule="evenodd" clip-rule="evenodd" fill="#DA745F" d="M-462.5-743.1l14,3.5c2.9-4.9,5-10.3,6-16l-12.8-6.4
			c0.1-2.1,0.1-4.2-0.2-6.3l12.4-7.4c-0.7-2.7-1.6-5.4-2.8-8.1c-1.2-2.6-2.6-5.1-4.2-7.4l-13.6,4.5c-1.4-1.6-3-3-4.6-4.3l3.5-14
			c-4.9-2.9-10.3-5-16-6l-6.4,12.8c-2.1-0.1-4.2-0.1-6.3,0.2l-7.4-12.4c-2.7,0.7-5.4,1.6-8.1,2.8c-2.6,1.2-5.1,2.6-7.4,4.2l4.5,13.6
			c-1.6,1.4-3,3-4.3,4.6l-14-3.5c-2.9,4.9-5,10.3-6,16l12.8,6.4c-0.1,2.1-0.1,4.2,0.2,6.3l-12.4,7.4c0.7,2.7,1.6,5.4,2.8,8.1
			c1.2,2.6,2.6,5.1,4.2,7.4l13.6-4.5c1.4,1.6,3,3,4.6,4.3l-3.5,14c4.9,2.9,10.3,5,16,6l6.4-12.8c2.1,0.1,4.2,0.1,6.3-0.2l7.4,12.4
			c2.7-0.7,5.4-1.6,8.1-2.8c2.6-1.2,5.1-2.6,7.4-4.2l-4.5-13.6C-465.2-739.9-463.8-741.4-462.5-743.1z M-481.5-746.4
			c-9.7,4.4-21.2,0.1-25.7-9.6c-4.4-9.7-0.1-21.2,9.6-25.7c9.7-4.4,21.2-0.1,25.7,9.6C-467.4-762.4-471.7-750.9-481.5-746.4z"/>
	</g>
</g>
<g>
	<g>
		<path fill="#A7845D" d="M-556.9-231.3c0-0.1,0-0.1,0-0.2c0-9-39.2-16.3-87.7-16.3c-48.4,0-87.7,7.3-87.7,16.3c0,0.1,0,0.1,0,0.2h0
			v120.7c0,9.3,2.1,19,10,23.7c12.8,7.6,77.6,42.8,77.6,42.8c0.2-0.1,64.8-35.2,77.6-42.8c8-4.7,10-14.3,10-23.7L-556.9-231.3
			L-556.9-231.3z"/>
		<path fill="#ECC8A1" d="M-571.5-220.6c0-0.1,0-0.1,0-0.2c0-7.5-32.7-13.6-73.1-13.6c-40.3,0-73.1,6.1-73.1,13.6c0,0.1,0,0.1,0,0.2
			h0V-120v3.7c0,7.8,1.7,15.8,8.4,19.7c10.7,6.3,64.7,35.6,64.7,35.6c0.1-0.1,54-29.4,64.7-35.6c6.7-3.9,8.4-11.9,8.4-19.7v-3.7
			L-571.5-220.6L-571.5-220.6z"/>
		<path fill="#DA745F" d="M-580.1-212c0-0.1,0-0.1,0-0.2c0-6.6-28.9-12-64.4-12c-35.6,0-64.4,5.4-64.4,12c0,0.1,0,0.1,0,0.2h0v88.7
			v3.2c0,6.9,1.5,13.9,7.4,17.4c9.4,5.6,57.1,31.4,57.1,31.4c0.1-0.1,47.6-25.9,57.1-31.4c5.9-3.5,7.4-10.5,7.4-17.4v-3.2
			L-580.1-212L-580.1-212z"/>
	</g>
	<path fill-rule="evenodd" clip-rule="evenodd" fill="#FFFFFF" d="M-652.5-118.7c-3.2-0.1-6.4-1.3-8.9-3.6l-26.6-24.5
		c-5.5-5.1-5.8-13.6-0.7-19.1c5.1-5.4,13.6-5.8,19.1-0.7l16.7,15.5l32.7-34.5c5.1-5.5,13.7-5.7,19.1-0.6c5.4,5.2,5.6,13.7,0.5,19.1
		l-41.8,44.2C-645.2-120.1-648.8-118.6-652.5-118.7L-652.5-118.7z"/>
</g>
<g>
	<path fill="#4A7689" d="M-638.2,66c11.6-7,25.6-9.5,41.9-7.7c14,1.6,26.3,5.9,36.5,10c6.5,2.6,13.1,6.3,19.4,11.1
		c6.1,4.6,12.1,10.2,17.7,16.7c11,12.5,20.8,28.3,28.4,45.5c7.7,17.5,13,36.4,15.3,54.6c2.5,19.8,1.7,38.4-2.4,55.3
		c-1.8,7.2-5,13.1-9.5,17.1c-2.3,2-4.9,3.5-7.6,4.3l0.6-5.5c1.3-0.6,2.5-1.5,3.7-2.5c3.7-3.3,6.5-8.3,8-14.5
		c7.8-31.9,3.1-70.8-12.7-106.8c-15.2-34.7-38.7-61.2-62.9-70.7c-6.5-2.6-20-7.9-35.3-9.7c-15.2-1.7-28.2,0.7-38.8,7
		c-10.9,6.5-10.2,18.1-8.8,24.5c1.6,7.4,5.7,15.1,11.2,21c1.7,1.8,3.4,3.4,5.2,4.8l-4.1-0.5c-1.1-0.1-2.2,0.1-3.2,0.6
		c-0.5-0.5-1.1-1.1-1.6-1.6c-6.1-6.6-10.6-15.1-12.4-23.3C-652,82.8-648,71.9-638.2,66z"/>
	
		<rect x="-690.7" y="145.4" transform="matrix(-0.9937 -0.1123 0.1123 -0.9937 -1272.4542 350.6156)" fill="#3F5D69" width="128.8" height="131.5"/>
	
		<rect x="-688" y="105.2" transform="matrix(-0.9937 -0.1123 0.1123 -0.9937 -1264.3872 303.2661)" fill="#FFFFFF" width="128.8" height="164"/>
	
		<rect x="-681.1" y="105.6" transform="matrix(-0.9937 -0.1123 0.1123 -0.9937 -1243.731 182.021)" fill="#3F5D69" width="128.8" height="40.8"/>
	<g>
		<circle fill="#905D41" cx="-623.3" cy="184" r="31.7"/>
		<circle fill="#DA745F" cx="-623.3" cy="184" r="28.5"/>
		<path fill="#FFFFFF" d="M-646.4,195.2c1.9-2.1,7.5-0.3,12.1-0.9c0.3-0.2,1.1-0.4,2-1c1-0.6,1.6-1.2,1.6-1.2l0,0
			c0.2-0.1,0.5-0.2,1-0.2c0.6-1.1,0.9-2.5,1-3.7c-1.2-2.1-1.9-4.8-1.6-7.7c-0.4-0.4-0.7-1.3-0.8-2.3c-0.1-1.4-0.5-2.7,0.8-2.8
			c0-0.1,0-0.1,0-0.2c-0.3-1.4-0.9-2.6-0.9-4.1c-0.1-1.8,0.5-4.1,2.9-5.7c1.2-0.8,2.7-1.2,4.3-1.1c1.3-1.2,2.7-1.4,4.6-1.2
			c0.6,0.1,1.3,0.2,2.1,0.4c2.2,0.5,4.3,2.7,5.4,4.4c0.8,1.2,0.8,2.8,0.4,4.5c-0.3,1.6-1,3.2-1.5,4.7c0,0.1-0.1,0.2-0.1,0.4
			c0,0,0.1,0,0.1,0c1.4,0.4,0.6,1.5,0.2,2.9c-0.1,0.3-0.2,0.5-0.3,0.7c-0.3,0.6-0.7,1.1-1.1,1.3c-0.2,1.1-0.5,2.2-0.9,3.2
			c-0.7,1.6-1.6,3-2.6,4c-0.1,1-0.5,2.4-0.3,3.4c0.2,0.1,0.4,0.2,0.5,0.3c0,0,0,0,0,0s0.5,0.7,1.3,1.6c1,1,1.9,1.3,1.9,1.5
			c0,0,0,0,0,0.1c3.7,1.8,9.6,2.5,10.5,3.7c0.3,0.4,0.6,1.8,0.9,3.8c-5.9,5.9-14.4,9.1-23.3,8.1c-9.4-1.1-17.1-6.5-21.5-14.1
			C-647.4,196.8-646.9,195.7-646.4,195.2z M-630.4,192.6c0,0,0.1,0.1,0.1,0.1c0,0,0,0,0.1-0.1C-630.3,192.6-630.3,192.6-630.4,192.6
			z"/>
	</g>
	<g>
		
			<rect x="-677.2" y="221.9" transform="matrix(-0.9937 -0.1123 0.1123 -0.9937 -1277.0627 377.6581)" fill="#E2D7B4" width="98.5" height="5.8"/>
		
			<rect x="-678.7" y="235.9" transform="matrix(-0.9937 -0.1123 0.1123 -0.9937 -1281.7968 405.4609)" fill="#E2D7B4" width="98.5" height="5.8"/>
		
			<rect x="-622.7" y="253.2" transform="matrix(-0.9937 -0.1123 0.1123 -0.9937 -1229.6559 442.9347)" fill="#E2D7B4" width="40.7" height="5.8"/>
	</g>
	<path fill="#70A9BF" d="M-637.8,124.6c-0.3,2.9,1.7,5.4,4.6,5.8l31.5,3.6c2.9,0.3,5.4-1.7,5.8-4.6l0,0c0.3-2.9-1.7-5.4-4.6-5.8
		L-632,120C-634.9,119.7-637.5,121.8-637.8,124.6L-637.8,124.6z"/>
	<path fill="#4A7689" d="M-599.6,122.7c6.1-3,13.1-6.4,22.3-5.3c3.8,0.4,7.7,1.6,11.8,3.5c7.7,3.7,14.4,10.2,19.9,19.4
		c4.6,7.7,8.5,17.6,11.5,29.4c5.5,21.5,7.5,45.9,9,63.8l0.2,2.2c1.6,19.9,9.4,29.5,16.7,32.3c1.1,0.4,2.2,0.7,3.2,0.8
		c2.5,0.3,5-0.2,7.4-1.3l-0.6,5.5c-2.4,0.7-4.8,1-7.3,0.7c-1.1-0.1-2.2-0.4-3.3-0.7c-4.8-1.5-9.2-4.9-12.7-9.9
		c-4.6-6.6-7.5-15.9-8.4-27l-0.2-2.2c-1.4-17.7-3.4-41.9-8.8-63c-6.2-24.2-15.9-39.5-28.7-45.6c-3.6-1.7-6.9-2.7-10.2-3.1
		c-7.3-0.8-13,1.7-18.5,4.4c-0.7-1.6-2.3-2.7-4.1-2.9l-0.8-0.1C-600.8,123.2-600.2,122.9-599.6,122.7z"/>
	<path fill="#4A7689" d="M-628,120.5c4.4,3.4,9.1,5.5,13.7,6c0,0,0,0,0,0c1.1,0.1,2.2,0.2,3.2,0.1c3.2-0.2,6.2-1.5,9.7-3.1l0.8,0.1
		c1.9,0.2,3.4,1.4,4.1,2.9c-0.4,0.2-0.7,0.3-1.1,0.5c-4.4,2.2-8.6,4.2-13.3,4.4c-1.3,0.1-2.7,0-4-0.1c0,0,0,0,0,0
		c-7-0.8-14.2-4.6-20.4-10.7c0.9-0.5,2-0.8,3.2-0.6L-628,120.5z"/>
	<path fill="#4A7689" d="M-632,120l4.1,0.5c2.6,2,5.3,3.6,8.1,4.6l-7.6,1.7c-2.7-1.6-5.2-3.7-7.7-6.1
		C-634.2,120.2-633.2,119.9-632,120z"/>
</g>
<g>
	<g>
		<path fill="#A7845D" d="M-487.7-156.3c0-0.1,0-0.1,0-0.2c0-6.1-26.6-11.1-59.5-11.1c-32.8,0-59.5,5-59.5,11.1c0,0.1,0,0.1,0,0.2h0
			v81.9c0,6.3,1.4,12.9,6.8,16c8.7,5.1,52.6,29,52.6,29c0.1-0.1,43.9-23.9,52.6-29c5.4-3.2,6.8-9.7,6.8-16L-487.7-156.3
			L-487.7-156.3z"/>
		<path fill="#ECC8A1" d="M-497.6-149.1c0,0,0-0.1,0-0.1c0-5.1-22.2-9.2-49.6-9.2c-27.4,0-49.6,4.1-49.6,9.2c0,0,0,0.1,0,0.1h0v68.2
			v2.5c0,5.3,1.2,10.7,5.7,13.4c7.3,4.3,43.9,24.2,43.9,24.2c0.1-0.1,36.6-19.9,43.9-24.2c4.5-2.7,5.7-8.1,5.7-13.4v-2.5
			L-497.6-149.1L-497.6-149.1z"/>
		<path fill="#DA745F" d="M-503.4-143.3c0,0,0-0.1,0-0.1c0-4.5-19.6-8.1-43.7-8.1c-24.1,0-43.7,3.6-43.7,8.1c0,0,0,0.1,0,0.1h0v60.2
			v2.2c0,4.7,1,9.5,5,11.8c6.4,3.8,38.7,21.3,38.7,21.3c0.1-0.1,32.3-17.6,38.7-21.3c4-2.3,5-7.1,5-11.8v-2.2L-503.4-143.3
			L-503.4-143.3z"/>
	</g>
	<path fill-rule="evenodd" clip-rule="evenodd" fill="#FFFFFF" d="M-552.5-80c-2.2,0-4.3-0.9-6-2.4l-18-16.6
		c-3.7-3.4-3.9-9.2-0.5-13c3.4-3.7,9.2-3.9,13-0.5l11.3,10.5l22.1-23.4c3.5-3.7,9.3-3.8,13-0.4c3.7,3.5,3.8,9.3,0.4,13l-28.4,30
		C-547.5-80.9-550-79.9-552.5-80L-552.5-80z"/>
</g>
<g>
	<polygon fill="#ECC8A1" points="259.8,-823.6 104,-822.6 105.5,-607.3 214.9,-608 261,-654.8 	"/>
	<polygon fill="#A7845D" points="214.9,-608 261,-654.8 214.5,-654.5 	"/>
	<polygon fill="#A7845D" points="259.8,-817.5 104,-816.4 104.2,-787.7 260,-787.9 	"/>
	<polygon fill="#3F5D69" points="259.8,-823.6 104,-822.6 104.2,-793.9 260,-794 	"/>
	<g>
		<g>
			<g>
				<path fill="#CD5E45" d="M157.5-764.4c0.1,7-5.4,12.8-12.4,12.9c-7,0.1-12.8-5.4-12.9-12.4c-0.1-7,5.4-12.8,12.4-12.9
					C151.6-777,157.4-771.4,157.5-764.4z"/>
				<path fill="#FFFFFF" d="M144-755.7c-0.6,0-1.2-0.2-1.7-0.6l-5.2-4.5c-1.1-0.9-1.2-2.5-0.3-3.6c0.9-1.1,2.6-1.2,3.6-0.3l3.3,2.8
					l6-6.8c0.9-1.1,2.6-1.2,3.6-0.2c1.1,0.9,1.2,2.6,0.2,3.6l-7.7,8.7C145.4-756.1,144.7-755.8,144-755.7z"/>
			</g>
			<g>
				<path fill="#CD5E45" d="M158.2-727.8c0.1,7-5.4,12.8-12.4,12.9c-7,0.1-12.8-5.4-12.9-12.4c-0.1-7,5.4-12.8,12.4-12.9
					C152.3-740.3,158.1-734.8,158.2-727.8z"/>
				<path fill="#FFFFFF" d="M144.6-719.1c-0.6,0-1.2-0.2-1.7-0.6l-5.2-4.5c-1.1-0.9-1.2-2.6-0.3-3.6c0.9-1.1,2.6-1.2,3.6-0.3
					l3.3,2.8l6-6.8c0.9-1.1,2.6-1.2,3.6-0.2c1.1,0.9,1.2,2.6,0.2,3.6l-7.7,8.7C146-719.4,145.3-719.1,144.6-719.1z"/>
			</g>
			<g>
				<path fill="#CD5E45" d="M158.9-691.1c0.1,7-5.4,12.8-12.4,12.9c-7,0.1-12.8-5.4-12.9-12.4c-0.1-7,5.4-12.8,12.4-12.9
					C153-703.7,158.7-698.1,158.9-691.1z"/>
				<path fill="#FFFFFF" d="M145.3-682.4c-0.6,0-1.2-0.2-1.7-0.6l-5.2-4.5c-1.1-0.9-1.2-2.5-0.3-3.6c0.9-1.1,2.6-1.2,3.6-0.3
					l3.3,2.8l6-6.8c0.9-1.1,2.6-1.2,3.6-0.2c1.1,0.9,1.2,2.6,0.2,3.7l-7.7,8.7C146.7-682.7,146-682.5,145.3-682.4z"/>
			</g>
		</g>
		<g>
			<g>
				<path fill="#A7845D" d="M227.8-773.7c0,1-0.7,1.7-1.7,1.7l-60.3,1.1c-0.9,0-1.7-0.7-1.7-1.7l0,0c0-0.9,0.7-1.7,1.7-1.7l60.3-1.1
					C227-775.4,227.8-774.6,227.8-773.7L227.8-773.7z"/>
				<path fill="#A7845D" d="M227.9-765.3c0,0.9-0.7,1.7-1.7,1.7l-60.3,1.1c-0.9,0-1.7-0.7-1.7-1.7l0,0c0-0.9,0.7-1.7,1.7-1.7
					l60.3-1.1C227.2-767,227.9-766.3,227.9-765.3L227.9-765.3z"/>
				<path fill="#A7845D" d="M200.3-756.4c0,0.9-0.7,1.7-1.7,1.7l-32.5,0.6c-0.9,0-1.7-0.7-1.7-1.7l0,0c0-0.9,0.7-1.7,1.7-1.7
					l32.5-0.6C199.5-758.1,200.3-757.4,200.3-756.4L200.3-756.4z"/>
			</g>
			<path fill="#A7845D" d="M228.5-737c0,0.9-0.7,1.7-1.7,1.7l-60.3,1.1c-0.9,0-1.7-0.7-1.7-1.7l0,0c0-0.9,0.7-1.7,1.7-1.7l60.3-1.1
				C227.7-738.7,228.4-738,228.5-737L228.5-737z"/>
			<path fill="#A7845D" d="M200.8-728.2c0,0.9-0.7,1.7-1.7,1.7l-32.5,0.6c-0.9,0-1.7-0.7-1.7-1.7l0,0c0-0.9,0.7-1.7,1.7-1.7
				l32.5-0.6C200-729.9,200.8-729.1,200.8-728.2L200.8-728.2z"/>
			<g>
				<path fill="#A7845D" d="M229.1-700.4c0,0.9-0.7,1.7-1.7,1.7l-60.3,1.1c-0.9,0-1.7-0.7-1.7-1.7l0,0c0-0.9,0.7-1.7,1.7-1.7
					l60.3-1.1C228.3-702.1,229.1-701.3,229.1-700.4L229.1-700.4z"/>
				<path fill="#A7845D" d="M229.3-692c0,0.9-0.7,1.7-1.7,1.7l-60.3,1.1c-0.9,0-1.7-0.7-1.7-1.7l0,0c0-0.9,0.7-1.7,1.7-1.7l60.3-1.1
					C228.5-693.7,229.3-693,229.3-692L229.3-692z"/>
			</g>
		</g>
	</g>
	<g>
		<path fill="#A7845D" d="M192.9-660.8c0,1-0.7,1.7-1.7,1.7l-60.3,1.1c-0.9,0-1.7-0.7-1.7-1.7l0,0c0-0.9,0.7-1.7,1.7-1.7l60.3-1.1
			C192.1-662.5,192.9-661.7,192.9-660.8L192.9-660.8z"/>
		<path fill="#A7845D" d="M244.3-662.4c0,0.9-0.7,1.7-1.7,1.7l-32.5,0.6c-0.9,0-1.7-0.7-1.7-1.7l0,0c0-0.9,0.7-1.7,1.7-1.7l32.5-0.6
			C243.5-664.1,244.3-663.3,244.3-662.4L244.3-662.4z"/>
	</g>
</g>
<g>
	<g>
		<circle fill-rule="evenodd" clip-rule="evenodd" fill="#70A9BF" cx="181.6" cy="-439.9" r="84.7"/>
		<circle fill-rule="evenodd" clip-rule="evenodd" fill="#FFFFFF" cx="181.6" cy="-453.5" r="84.7"/>
		<g>
			<g>
				<path fill-rule="evenodd" clip-rule="evenodd" fill="#3F5D69" d="M212.1-428.7c-1.7-0.5-3.1-4.1-3.6-6.7c-0.5-2.6-2.4-5.7-5-6.9
					c-2.6-1.2-4.3,0-6.7-1.2c-2.4-1.2-6.2-3.8-8.6-4.6c-2.4-0.7-5.7-0.3-8.1-1.4c-2.4-1.2-6,1.9-6,1.9s-2.9,5.3-3.8,6.7
					c-0.9,1.4-1.2,7.4-0.7,9.3c0.5,1.9,5.2,6.4,5.2,6.4s2.2,3.6,3.8,3.6c1.7,0,4.8-2.4,7.4-2.6c2.6-0.3,4,1.9,4.8,3.1
					c0.7,1.2,1.2,6.7,1,8.4c-0.2,1.7,0.2,12.4,0.9,13.3c0.7,1,6,6,7.9,6c1.9,0,4.1-3.3,5.7-4.8c1.7-1.4,3.8-7.4,3.8-9.1v-8.6
					c0-1.4,2.1-3.6,3.8-5.3c1.7-1.7,3.3-4.8,2.8-6.7C216.4-429.6,213.8-428.2,212.1-428.7z"/>
			</g>
			<g>
				<g>
					<path fill-rule="evenodd" clip-rule="evenodd" fill="#3F5D69" d="M182-540.1c-48.6,0-87.9,39.3-87.9,87.9
						c0,48.5,39.4,87.9,87.9,87.9c48.5,0,87.9-39.4,87.9-87.9C269.9-500.7,230.6-540.1,182-540.1z M135.9-395.7
						c-3.4-4.7-6.2-9.8-8.3-15.3c1.6,0.4,3.3,0.5,4.6,0.8c2.3,0.6,4.6,4.2,5.5,4.6C138.7-405.4,136.8-397,135.9-395.7z M236.9-397.3
						c-14.1,14.1-33.6,22.9-55.2,22.9c-12.8,0-24.8-3.1-35.5-8.6c1.3-2.6,2.2-10.1,2.2-10.1s1.9-18.9,1.2-20
						c-0.7-1.2-5.5-5.7-8.6-7.2c-3.1-1.5-6,0.2-8.6-0.8c-2.6-0.9-3.8-5-5.7-6.4c-1.9-1.4-4.8-1.4-7.7-2.2c-3-0.8-4.9-4.4-5.7-5.9
						c-0.7-1.4-0.3-4.9,1.9-5.2c2.2-0.3,4.5-0.7,12.7-4.7c8.1-4-1-6.5-0.5-12.2c0.5-5.8,8.1-5.3,11.2-8.6c3.1-3.3-2.1-5.5-4.5-7.4
						c-2.4-1.9-6.2,0.5-7.6,3.1c-1.4,2.6-1.9,4.8-4.8,4.2c-2.9-0.6-3.8-1.1-5.4-4.2c-1.7-3.2,1.1-3.4,7.4-7.6c6.3-4.3,2.4-4.3,2.2-6
						c-0.2-1.7-2.9-0.9-6-2.1c0,0,0-0.1-0.1-0.1c-2.9-1.3-1.3-4.5,0.6-5.6c1.9-1.2,4-1.4,6-0.3c1.9,1.2,1.9,2.1,6.9,0.3
						c5-1.9,5.3-0.3,6.9,2.1c1.1,1.5,2.4,3.8,3.8,5.9c0.8,1.2,1.5,2.3,2.2,3.1c1.9,2.4,6.7,0,10.7-2.3c0.1,0,0.1-0.1,0.1-0.1
						c3.9-2.4,2.5-6.2,2.8-9.5c0.2-3.3-2.4-3.3-3.8-4.5c-1.4-1.2-1.7-5.5-3.4-7.9c-1.7-2.4-5-2.1-7.2-1.4c-2.1,0.7-5.7,3.9-6.4,3.6
						c-0.7-0.2-0.5-3.8-2.1-5c-1-0.7-4.8-0.8-8.1-1.4c14-12.9,32.6-20.9,53.1-20.9c21.5,0,41,8.7,55.2,22.9c3.2,3.2,6,6.6,8.6,10.3
						c-7.8,2.5-21.6,7.3-22.6,8.7c-1.4,1.9-6.4,2.9-8.8,1.7c-2.4-1.2-4.1-2.6-6.5-2.4c-2.4,0.2-3.4,0.5-5,2.4c-1.1,1.2-3,2.9-5,3.8
						c-1.2,0.5-2.4,0.9-3.4,0.3c-0.3-0.2-0.6-0.1-0.8-0.2c-0.8-0.2-1.6-0.2-2.2,0.1c-1,0.4-1.8,1-1.8,1c-2.4,3.4,0.5,7.7,2.4,7.5
						c1.9-0.2,4.3-4.1,5.5-4.1c1.2,0,3.9,2.2,4.3,3c0.4,0.8-1.9,6.1-3.4,6.3c-1.4,0.2-6.7,1.9-7.9,1.9c-1.2,0-6.4-2.1-7.6-0.7
						c-1.2,1.5-3.6,1.2-2.4,4.6c1.2,3.3,0,6-0.9,6.2c-0.9,0.2-8.8,2.4-0.9,2.6c7.9,0.2,9.8-2.4,11.5-2.6c1.7-0.2,4.5-2.4,6.5-1.4
						c1.9,1,4.9-0.5,6.5,0c1.6,0.5,5.2-4,6.9-2.3c1.7,1.6,1.2,5,0.7,6.2c-0.5,1.2-3.4,2.1-2.7,3.8c0.8,1.7,2.2,3.8,4.3,5.5
						c2.1,1.7,3.6,3.8,5,2.1c1.4-1.7,1.4-3.8,2.1-4.8c0.7-0.9,7.4,0.3,7.7,1.7c0.2,1.5,3.6,4.6,4.3,4.8c0.7,0.2,3.4,1.4,3.4,1.4
						s0.7,0.9,1.9,3.4c1.2,2.6,3.6,2.6,5.2,2.1c1.7-0.5,3-4,5.3-3.8c2.2,0.2,3.3-0.7,5.7,1.7c2.3,2.3,2.8,2.8,4.5,4.1
						C253.7-419.3,246.6-407,236.9-397.3z"/>
				</g>
			</g>
		</g>
	</g>
	<g>
		<g>
			<polygon fill="#DA745F" points="40.8,-447.3 66.4,-473 58.7,-480.8 25.3,-447.3 58.7,-413.9 66.4,-421.7 			"/>
		</g>
		<g>
			<polygon fill="#DA745F" points="325.3,-446.5 299.6,-472.2 307.4,-480 340.8,-446.5 307.4,-413.1 299.6,-420.8 			"/>
		</g>
	</g>
</g>
<g>
	<g>
		<g>
			<path fill="#DA745F" d="M275.5-185.4c0,47.8-38.7,86.5-86.5,86.5c-47.8,0-86.5-38.7-86.5-86.5c0-47.8,38.7-86.5,86.5-86.5
				C236.8-271.9,275.5-233.2,275.5-185.4z"/>
			<path fill="#F6F6F6" d="M258.7-185.4c0,38.5-31.2,69.7-69.7,69.7c-38.5,0-69.7-31.2-69.7-69.7c0-38.5,31.2-69.7,69.7-69.7
				C227.5-255.1,258.7-223.9,258.7-185.4z"/>
			<path fill="#DA745F" d="M245.1-185.4c0,31-25.2,56.2-56.2,56.2c-31,0-56.2-25.2-56.2-56.2c0-31,25.2-56.2,56.2-56.2
				C220-241.6,245.1-216.4,245.1-185.4z"/>
			<path fill="#F6F6F6" d="M227.7-185.4c0,21.4-17.4,38.8-38.8,38.8s-38.8-17.4-38.8-38.8c0-21.4,17.4-38.8,38.8-38.8
				S227.7-206.8,227.7-185.4z"/>
			<path fill="#DA745F" d="M210.6-186.6c0,11.9-9.7,21.6-21.6,21.6c-12,0-21.6-9.7-21.6-21.6c0-11.9,9.7-21.6,21.6-21.6
				C200.9-208.2,210.6-198.5,210.6-186.6z"/>
		</g>
		<path fill="#BD9E7B" d="M191.3-184.7l82.7-16.9c0,0-5-29.1-23.6-44.7C250.3-246.4,194.2-195.6,191.3-184.7z"/>
		<path fill="#70A9BF" d="M191.3-184.7c-0.8,1-2.2,1.1-3.2,0.3l0,0c-1-0.8-1.1-2.2-0.3-3.2l14.7-17.6c0.8-1,2.2-1.1,3.2-0.3l0,0
			c0.9,0.8,1.1,2.2,0.3,3.2L191.3-184.7z"/>
		<path fill="#70A9BF" d="M211.2-212.1l-4.3-3.6l-11.5,13.8c-0.3,0.4,1.3,2.3,3.7,4.3c2.4,2,4.5,3.3,4.9,2.9l11.5-13.8L211.2-212.1z
			"/>
		<path fill="#70A9BF" d="M259-269.3c-1.8-1.6-3.8-2.3-4.4-1.6L207-215.7c-0.3,0.4,1.3,2.3,3.7,4.3c2.4,2,4.5,3.3,4.9,2.9l45.8-56.7
			C261.9-265.9,260.9-267.8,259-269.3z"/>
		<path fill="#EDB444" d="M217.1-227.5c0,0,2.7-25.6,3.2-46.3l7.5,0.6l9.8-12.3l5.6,3.3c0,0,8.8-10.4,9.7-11.8
			c0,0-3.1,24.6-5.5,31.7L217.1-227.5z"/>
		<path fill="#EDB444" d="M224.3-220c0,0,15-5.4,35.3-9.5l0.3-5.5l9.1-11l1-6.5c0,0,10.8-12.3,13.2-14.6c0,0-23.6,7.4-30.1,11
			L224.3-220z"/>
	</g>
</g>
<rect x="127.2" y="95.4" fill="#83A95B" width="226.9" height="103.8"/>
<rect x="110.9" y="95.1" fill="#C3D37E" width="226.9" height="103.8"/>
<g>
	<path fill="#83A95B" d="M121,101.9v90.2h206.7v-90.2H121z M320.3,185.8H128.4v-77.6h191.9V185.8z"/>
</g>
<path fill="#83A95B" d="M257.1,147c0,21.4-15.4,38.8-34.3,38.8c-19,0-34.4-17.4-34.4-38.8c0-21.4,15.4-38.8,34.4-38.8
	C241.7,108.1,257.1,125.5,257.1,147z"/>
<path fill="#C3D37E" d="M226.4,141.3c-6.5-2.8-7-4.1-7-5.6c0-2.1,1.8-3.3,4.8-3.3c4,0,6.5,1.5,7.6,2.1l2.7,1.6l1.1-3l1.8-4.7
	l0.9-2.3l-2.1-1.2c-2.4-1.4-4.9-2.3-7.8-2.7l0-4.3l0-2.9l-2.7,0l-4.4,0l-2.7,0l0,2.9l0,4.9c-6.6,1.9-10.8,7.2-10.8,13.8
	c0,8.6,6.8,12.5,13.4,15.2c5.5,2.3,6.2,4.2,6.2,5.9c0,2.9-2.9,4.2-5.7,4.2c-3,0-6.3-1-8.7-2.7l-2.9-2l-1.2,3.3l-1.7,4.8l-0.8,2.1
	l1.7,1.3c2.4,1.7,6,3,9.7,3.5l0,4.6l0,2.9l2.7,0l4.5,0l2.7,0l0-2.9l0-5.2c6.8-2,11.3-7.6,11.3-14.5
	C239.1,147.8,232.3,143.8,226.4,141.3z"/>
<polygon fill="#83A95B" points="121,101.9 121,138.3 159.9,101.9 "/>
<polygon fill="#83A95B" points="121,191.6 121,155.2 159.9,191.6 "/>
<rect x="99.1" y="67.3" fill="#83A95B" width="226.9" height="103.8"/>
<rect x="82.8" y="67" fill="#C3D37E" width="226.9" height="103.8"/>
<g>
	<path fill="#83A95B" d="M92.9,73.8v90.2h206.7V73.8H92.9z M292.2,157.7H100.3V80h191.9V157.7z"/>
</g>
<path fill="#83A95B" d="M229,118.8c0,21.4-15.4,38.8-34.3,38.8c-19,0-34.4-17.4-34.4-38.8c0-21.4,15.4-38.8,34.4-38.8
	C213.6,80,229,97.4,229,118.8z"/>
<path fill="#C3D37E" d="M198.3,113.2c-6.5-2.8-7-4.1-7-5.6c0-2.1,1.8-3.3,4.8-3.3c4,0,6.5,1.5,7.6,2.1l2.7,1.6l1.1-3l1.8-4.7
	l0.9-2.3l-2.1-1.2c-2.4-1.4-4.9-2.3-7.8-2.7l0-4.3l0-2.9l-2.7,0l-4.4,0l-2.7,0l0,2.9l0,4.9c-6.6,1.9-10.8,7.2-10.8,13.8
	c0,8.6,6.8,12.5,13.4,15.2c5.5,2.3,6.2,4.2,6.2,5.9c0,2.9-2.9,4.2-5.7,4.2c-3,0-6.3-1-8.7-2.7l-2.9-2l-1.2,3.3l-1.7,4.8l-0.8,2.1
	l1.7,1.3c2.4,1.7,6,3,9.7,3.5l0,4.6l0,2.9l2.7,0l4.5,0l2.7,0l0-2.9l0-5.2c6.8-2,11.3-7.6,11.3-14.5
	C211,119.7,204.2,115.6,198.3,113.2z"/>
<polygon fill="#83A95B" points="299.6,73.8 299.6,110.1 260.7,73.8 "/>
<polygon fill="#83A95B" points="299.6,163.5 299.6,127.1 260.7,163.5 "/>
<rect x="68.3" y="36.5" fill="#83A95B" width="226.9" height="103.8"/>
<rect x="52.1" y="36.2" fill="#C3D37E" width="226.9" height="103.8"/>
<g>
	<path fill="#83A95B" d="M62.2,43v90.2h206.7V43H62.2z M261.5,126.9H69.6V49.3h191.9V126.9z"/>
</g>
<path fill="#83A95B" d="M198.2,88.1c0,21.4-15.4,38.8-34.3,38.8c-19,0-34.4-17.4-34.4-38.8c0-21.4,15.4-38.8,34.4-38.8
	C182.9,49.3,198.2,66.7,198.2,88.1z"/>
<path fill="#C3D37E" d="M167.5,82.4c-6.5-2.8-7-4.1-7-5.6c0-2.1,1.8-3.3,4.8-3.3c4,0,6.5,1.5,7.6,2.1l2.7,1.6l1.1-3l1.8-4.7l0.9-2.3
	l-2.1-1.2c-2.4-1.4-4.9-2.3-7.8-2.7l0-4.3l0-2.9l-2.7,0l-4.4,0l-2.7,0l0,2.9l0,4.9c-6.6,1.9-10.8,7.2-10.8,13.8
	c0,8.6,6.8,12.5,13.4,15.2c5.5,2.3,6.2,4.2,6.2,5.9c0,2.9-2.9,4.2-5.7,4.2c-3,0-6.3-1-8.7-2.7l-2.9-2l-1.2,3.3l-1.7,4.8l-0.8,2.1
	l1.7,1.3c2.4,1.7,6,3,9.7,3.5l0,4.6l0,2.9l2.7,0l4.5,0l2.7,0l0-2.9l0-5.2c6.8-2,11.3-7.6,11.3-14.5
	C180.3,88.9,173.5,84.9,167.5,82.4z"/>
<polygon fill="#83A95B" points="268.9,43 268.9,79.4 230,43 "/>
<polygon fill="#83A95B" points="268.9,132.7 268.9,96.3 230,132.7 "/>
</svg>
