<?xml version="1.0" encoding="utf-8"?>
<!-- Generator: Adobe Illustrator 19.0.0, SVG Export Plug-In . SVG Version: 6.00 Build 0)  -->
<svg version="1.1" id="Layer_1" xmlns="http://www.w3.org/2000/svg" xmlns:xlink="http://www.w3.org/1999/xlink" x="0px" y="0px"
	 viewBox="119 2.4 850.4 789.6" style="enable-background:new 119 2.4 850.4 789.6;" xml:space="preserve">
<style type="text/css">
	.st0{fill:#64585A;}
</style>
<path class="st0" d="M544.3,2.4C251.7,2.4,119,129.3,119,400c0,265,132.7,392,425.3,392c281.4,0,425.1-127,425.1-392
	C969.4,129.3,825.7,2.4,544.3,2.4z M685.2,501.2c-3.1,2.9-33.7,27.9-140.9,27.9c-91.1,0-133.6-17.2-143.4-26.3
	c-5.3-4.9-19.1-33.1-19.1-102.9c0-73.7,14.5-103.5,20.1-108.8c9.6-9,51.6-26,142.3-26c106.8,0,136.8,24.9,139.9,27.7
	c10.3,9.5,22.4,43.3,22.4,107.1C706.6,460.3,695.1,492.2,685.2,501.2z"/>
</svg>
