<?xml version="1.0" encoding="utf-8"?>
<!DOCTYPE svg PUBLIC "-//W3C//DTD SVG 1.1//EN" "http://www.w3.org/Graphics/SVG/1.1/DTD/svg11.dtd">
<svg version="1.1" id="Layer_1" xmlns="http://www.w3.org/2000/svg" xmlns:xlink="http://www.w3.org/1999/xlink" x="0px" y="0px"
	 width="539.815px" height="107.272px" viewBox="0 0 539.815 107.272" xml:space="preserve">
	<path fill="#66595c" d="M40.399,87.625c4.876,0,8.498,0,13.373-0.278v10.309c-5.85,3.203-14.905,5.572-22.706,5.572h-1.532
		c-11.284,0-16.995-6.408-16.995-19.781V42.073H3.624V28.421h6.825c2.925,0,3.622-0.835,3.622-3.482V9.06
		c7.383-1.115,11.006-1.394,16.855-1.673v21.034h21.034v13.652H30.927V74.67c0,10.447,1.253,12.955,8.219,12.955H40.399z"/>
	<path fill="#66595c" d="M97.709,26.75c20.894,0,30.784,9.473,30.784,29.531v16.995H78.346v3.344
		c0,9.194,5.711,13.234,14.348,13.234h5.571c6.13,0,10.865-1.255,12.955-6.27l0.697-2.646h14.488v12.258
		c-7.105,6.825-18.11,10.03-28.696,10.03h-4.18c-23.821,0-33.015-9.752-33.015-33.154V57.676c0-21.035,11.004-30.926,32.597-30.926
		H97.709z M112.057,52.381c0-8.497-5.99-12.815-14.905-12.815h-4.04c-9.194,0-14.766,4.598-14.766,13.513v7.243h33.711V52.381z"/>
	<path fill="#66595c" d="M203.481,87.485c2.229,0.279,5.294,0.558,9.193,1.114v12.816h-27.581v-9.334
		c-7.94,6.408-14.905,10.588-25.771,10.588h-2.368c-13.373,0-20.061-2.647-20.061-20.338v-2.09c0-16.16,8.916-18.945,20.896-20.479
		c10.447-1.393,16.158-1.81,27.303-3.064v-3.203c0-10.448-4.04-13.373-13.373-13.373c-4.317,0-10.447,0.418-15.045,1.811
		l-1.113,8.08H141.91V30.512c9.751-2.369,23.124-3.762,31.761-3.762h5.711c16.3,0,24.1,9.751,24.1,25.91V87.485z M167.264,89.297
		c6.547,0,12.676-4.04,17.83-9.194V66.451c-4.737,0.558-13.095,1.393-19.085,2.368c-7.383,1.114-10.168,3.343-10.168,9.473v2.09
		c0,6.548,2.367,8.915,9.333,8.915H167.264z"/>
	<path fill="#66595c" d="M341.49,87.485c1.672,0.14,4.458,0.558,9.891,1.114v12.956h-28.278V56.281c0-11.7-1.115-13.93-9.193-13.93
		h-1.672c-6.269,0-11.98,3.064-18.389,7.941v37.192c1.533,0.14,4.458,0.558,9.891,1.114v12.956h-28.278V56.281
		c0-11.7-1.253-13.93-9.193-13.93h-1.673c-6.128,0-11.423,2.926-17.69,7.662v37.611c2.925,0.14,5.99,0.558,9.333,0.975v12.956
		h-37.054V88.6c3.343-0.417,6.407-0.835,9.333-0.975V42.491c-2.786-0.14-5.851-0.696-8.776-0.976V28.421h27.164v10.17
		c8.218-6.546,16.855-11.841,27.024-11.841h1.672c9.751,0,15.184,3.482,17.134,13.233c8.357-6.825,17.83-13.233,28.836-13.233h1.812
		c11.979,0,18.108,5.851,18.108,19.781V87.485z"/>
	<path fill="#66595c" d="M391.621,26.75c20.895,0,30.784,9.473,30.784,29.531v16.995h-50.147v3.344
		c0,9.194,5.711,13.234,14.349,13.234h5.57c6.13,0,10.866-1.255,12.956-6.27l0.696-2.646h14.488v12.258
		c-7.105,6.825-18.11,10.03-28.696,10.03h-4.18c-23.82,0-33.014-9.752-33.014-33.154V57.676c0-21.035,11.003-30.926,32.596-30.926
		H391.621z M405.969,52.381c0-8.497-5.989-12.815-14.905-12.815h-4.04c-9.194,0-14.766,4.598-14.766,13.513v7.243h33.711V52.381z"/>
	<path fill="#66595c" d="M498.606,87.485c2.229,0.279,5.293,0.558,9.333,1.114v12.816h-27.721V90.968
		c-8.08,6.27-15.603,11.702-26.469,11.702h-2.367c-11.98,0-20.059-7.662-20.059-26.328V51.128c0-16.02,8.915-24.099,20.894-24.099
		h2.369c11.004,0,15.044,1.671,25.632,7.521V16.86c-1.673-0.418-4.318-0.837-9.891-1.394V4.044h28.278V87.485z M462.527,87.067
		c6.269,0,11.144-2.228,17.691-6.965V46.811c-8.358-4.459-11.283-4.737-17.691-4.737h-2.369c-8.078,0-10.446,4.875-10.446,13.652
		v15.461c0,11.98,2.506,15.881,10.726,15.881H462.527z"/>
	<path fill="#66595c" d="M514.739,92.362c0-6.827,3.345-10.03,10.728-10.03c7.104,0,10.726,3.203,10.726,10.03
		c0,6.686-3.622,9.89-10.726,9.89C518.084,102.252,514.739,99.048,514.739,92.362z"/>
</svg>
