<?xml version="1.0" encoding="utf-8"?>
<!-- Generator: Adobe Illustrator 17.1.0, SVG Export Plug-In . SVG Version: 6.00 Build 0)  -->
<!DOCTYPE svg PUBLIC "-//W3C//DTD SVG 1.1//EN" "http://www.w3.org/Graphics/SVG/1.1/DTD/svg11.dtd">
<svg version="1.1" id="Layer_1" xmlns="http://www.w3.org/2000/svg" xmlns:xlink="http://www.w3.org/1999/xlink" x="0px" y="0px"
	 viewBox="0 0 459.9 459.9" enable-background="new 0 0 459.9 459.9" xml:space="preserve">
<path fill="#C14B30" d="M459.9,230c0,127-103,230-230,230C103,459.9,0,356.9,0,230C0,103,103,0,229.9,0C357,0,459.9,103,459.9,230z"
	/>
<g opacity="0.2">
	<path fill="#231F20" d="M324.3,439.7L175.2,290.5c-0.4-0.4-0.8-0.8-1.1-1.2l0,0c-5-4.7-11.7-7.6-19.1-7.6
		c-15.4,0-27.8,12.4-27.8,27.8c0,7.4,2.9,14,7.6,19l0,0c0.4,0.4,0.8,0.8,1.2,1.2l127.6,127.6C284.9,454.3,305.3,448.2,324.3,439.7z"
		/>
	<path fill="#231F20" d="M342.9,133.9l-0.1-0.1l0,0c-2.1-1.6-4.8-2.5-7.7-2.5H311c-18.2,0-33.1,11.5-38.5,24.3
		c-5.5,12.7-12.1,29.7-12.1,29.7s-94.7,0-102.6,0c-8,0-14.4,7-14.4,14.3v41c0,4,1.8,7.6,4.5,10.2l184.9,184.9
		C402.5,400.7,452,331.4,459,250L345.4,136.4C344.7,135.4,343.8,134.6,342.9,133.9z"/>
</g>
<path fill="#FFFFFF" d="M154.9,281.8c-15.4,0-27.8,12.4-27.8,27.8c0,15.4,12.5,27.8,27.8,27.8s27.8-12.5,27.8-27.8
	C182.8,294.2,170.3,281.8,154.9,281.8z M265,281.8c-15.4,0-27.8,12.4-27.8,27.8c0,15.4,12.5,27.8,27.8,27.8
	c15.4,0,27.8-12.5,27.8-27.8C292.8,294.2,280.4,281.8,265,281.8z M335.1,131.2H311c-18.2,0-33.1,11.5-38.5,24.3
	c-5.5,12.7-12.1,29.7-12.1,29.7s-94.7,0-102.6,0c-8,0-14.4,7-14.4,14.3v41c0,7.9,7.1,14.4,14.4,14.4h83.8c10.9,0,20.6-5.7,25.2-16.6
	c4.6-10.9,27.3-66.5,29.4-71.9c2.1-5.5,8.8-8.7,13.6-8.7h25.4c7.7,0,13.2-6.1,13.2-13.2C348.3,137.5,342.5,131.2,335.1,131.2z"/>
</svg>
