<?xml version="1.0" encoding="utf-8"?>
<!-- Generator: Adobe Illustrator 17.1.0, SVG Export Plug-In . SVG Version: 6.00 Build 0)  -->
<!DOCTYPE svg PUBLIC "-//W3C//DTD SVG 1.1//EN" "http://www.w3.org/Graphics/SVG/1.1/DTD/svg11.dtd">
<svg version="1.1" id="Layer_1" xmlns="http://www.w3.org/2000/svg" xmlns:xlink="http://www.w3.org/1999/xlink" x="0px" y="0px"
	 viewBox="0 0 445.9 446" enable-background="new 0 0 445.9 446" xml:space="preserve">
<path fill="#547882" d="M223,446C99.8,446,0,346.1,0,223C0,99.8,99.8,0,223,0c123.1,0,223,99.8,223,223
	C445.9,346.1,346.1,446,223,446z"/>
<path opacity="0.2" fill="#231F20" d="M252.4,121.6c-2-3.3-5.6-5.5-9.7-5.5h-56c-6.3,0-11.3,5.1-11.3,11.3c0,3.4,1.5,6.4,3.8,8.5
	l14.9,14.9c1.5,1.5,2.4,3.6,2.4,5.9c0,3.4-2,6.4-4.9,7.7v0c-39.8,10.2-69.2,46.4-69.2,89.4c0,19.7,6.2,38,16.8,53
	c0.7,1.2,1.5,2.4,2.5,3.4l130.7,130.2c73.7-16.7,133.5-69.7,159.5-139.3L252.4,121.6z"/>
<path fill="#FFFFFF" d="M237.9,164.5c-3-1.3-5-4.3-5-7.8c0-2.4,1-4.6,2.6-6.1l0,0l14.7-14.7l0,0c2.3-2.1,3.8-5.1,3.8-8.5
	c0-6.3-5.1-11.3-11.3-11.3h-56c-6.3,0-11.3,5.1-11.3,11.3c0,3.4,1.5,6.4,3.8,8.5l14.9,14.9l0,0c1.5,1.5,2.4,3.6,2.4,5.9
	c0,3.4-2,6.4-4.9,7.7v0c-39.8,10.2-69.2,46.4-69.2,89.4c0,19.7,6.2,38,16.8,53c2.6,4.8,7.7,8.1,13.5,8.1h124.1
	c5.8,0,10.9-3.3,13.5-8.1c10.5-15,16.7-33.3,16.7-53C307,210.9,277.6,174.8,237.9,164.5z M212.9,215.9l0.8,0.9l15.5,19.6
	c4.1,4.3,6.7,10.2,6.7,16.7c0,10-6,18.5-14.7,22.3v2.9c0,3.1-2.5,5.6-5.6,5.6c-3.1,0-5.6-2.5-5.6-5.6v-1
	c-12.6-0.9-22.5-11.3-22.5-24.1c0-5.4,4.4-9.8,9.8-9.8s9.8,4.4,9.8,9.8c0,2.5,2.1,4.6,4.6,4.6c2.5,0,4.6-2,4.6-4.6
	c0-1.3-0.5-2.4-1.3-3.2l-0.8-0.9l-15.5-19.6c-4.1-4.3-6.6-10.2-6.6-16.7c0-11.2,7.6-20.6,18-23.4v-1.4c0-3.1,2.5-5.6,5.6-5.6
	c3.1,0,5.6,2.5,5.6,5.6v1.1c4.7,1,8.9,3.3,12.2,6.6c3.8,3.8,3.8,10.1,0,13.9c-3.8,3.8-10.1,3.8-13.9,0c-0.9-0.8-1.9-1.3-3.2-1.3
	c-2.5,0-4.6,2-4.6,4.6C211.6,214,212.1,215.1,212.9,215.9z"/>
</svg>
