<?xml version="1.0" encoding="utf-8"?>
<!-- Generator: Adobe Illustrator 17.1.0, SVG Export Plug-In . SVG Version: 6.00 Build 0)  -->
<!DOCTYPE svg PUBLIC "-//W3C//DTD SVG 1.1//EN" "http://www.w3.org/Graphics/SVG/1.1/DTD/svg11.dtd">
<svg version="1.1" id="Layer_1" xmlns="http://www.w3.org/2000/svg" xmlns:xlink="http://www.w3.org/1999/xlink" x="0px" y="0px"
	 viewBox="0 0 443.6 443.5" enable-background="new 0 0 443.6 443.5" xml:space="preserve">
<path fill="#569859" d="M221.8,443.6C99.3,443.6,0,344.3,0,221.8C0,99.3,99.3,0,221.8,0c122.5,0,221.8,99.3,221.8,221.8
	C443.6,344.3,344.3,443.6,221.8,443.6z"/>
<path opacity="0.2" fill="#231F20" d="M301.9,121.9L301.9,121.9c-5.2-5.2-12.4-8.5-20.4-8.5c-15.9,0-28.7,12.9-28.7,28.7
	c0,8.7,3.9,16.5,10,21.8l18,18c-7.8,0.1-14.8,3.1-19.9,7.9l-67.9-67.9c-5.2-5.2-12.4-8.5-20.4-8.5c-15.9,0-28.7,12.9-28.7,28.7
	c0,9.6,4.7,18,11.9,23.3l16.5,16.5h-26.6c-8.1,0-14.7,6.6-14.7,14.7c0,0.7,0.1,1.3,0.1,1.9v0l12.9,107.7c0,0.2,0.1,0.3,0.1,0.5
	l0.1,1.1h0c1,6.2,3.9,11.8,8.2,16l115,115c88.3-18.4,157.2-89.3,172.9-178.6L301.9,121.9z"/>
<path fill="#FFFFFF" d="M172.5,170.9c15.9,0,28.7-12.9,28.7-28.7c0-15.9-12.9-28.7-28.7-28.7c-15.9,0-28.7,12.9-28.7,28.7
	C143.8,158,156.6,170.9,172.5,170.9z M281.5,170.9c15.9,0,28.7-12.9,28.7-28.7c0-15.9-12.9-28.7-28.7-28.7
	c-15.9,0-28.7,12.9-28.7,28.7C252.7,158,265.6,170.9,281.5,170.9z M199.5,181.9h-54c-8.1,0-14.7,6.6-14.7,14.7
	c0,0.7,0.1,1.3,0.1,1.9v0l12.9,107.7c0,0.2,0.1,0.3,0.1,0.5l0.1,1.1h0c2.1,13.8,14,24.4,28.4,24.4c14.4,0,26.3-10.6,28.4-24.4h0
	l0.1-1.1c0-0.2,0-0.3,0.1-0.5L214,199.1l0,0c0.1-0.8,0.2-1.6,0.2-2.5C214.2,188.4,207.6,181.9,199.5,181.9z M322.6,307.6
	L322.6,307.6l-12.9-101.2c0-0.2-0.1-0.3-0.1-0.5l-0.1-1h0c-2.1-13-14-23-28.4-23c-14.4,0-26.3,10-28.4,23h0l-0.1,1
	c0,0.2-0.1,0.3-0.1,0.5l-13,101.7l0,0c-0.1,0.6-0.1,1.2-0.1,1.8c0,7.7,6.6,13.9,14.7,13.9h53.9c8.1,0,14.7-6.2,14.7-13.9
	C322.8,309.1,322.7,308.4,322.6,307.6z"/>
</svg>
